# MagicaVoxel @ Ephtracy

# group
g ama02-11

# material
mtllib ama02-11.mtl
usemtl palette

# normals
vn -1 0 0
vn 1 0 0
vn 0 0 1
vn 0 0 -1
vn 0 -1 0
vn 0 1 0

# texcoords
vt 0.958984 0.5
vt 0.982422 0.5

# verts
v -3 7 3
v -3 7 2
v -3 8 3
v -3 8 2
v 1 7 3
v 1 7 2
v 1 8 3
v 1 8 2
v -1 7 3
v -1 7 2
v -1 8 3
v -1 8 2
v 3 7 3
v 3 7 2
v 3 8 3
v 3 8 2
v -3 7 3
v -3 8 3
v -2 7 3
v -2 8 3
v -1 7 3
v -1 8 3
v 1 7 3
v 1 8 3
v 2 7 3
v 2 8 3
v 3 7 3
v 3 8 3
v -3 7 2
v -3 8 2
v -2 7 2
v -2 8 2
v -1 7 2
v -1 8 2
v 1 7 2
v 1 8 2
v 2 7 2
v 2 8 2
v 3 7 2
v 3 8 2
v -3 7 3
v -2 7 3
v -1 7 3
v 1 7 3
v 2 7 3
v 3 7 3
v -3 7 2
v -2 7 2
v -1 7 2
v 1 7 2
v 2 7 2
v 3 7 2
v -3 8 3
v -2 8 3
v -1 8 3
v 1 8 3
v 2 8 3
v 3 8 3
v -3 8 2
v -2 8 2
v -1 8 2
v 1 8 2
v 2 8 2
v 3 8 2

# faces
f 3/2/1 2/2/1 1/2/1
f 4/2/1 2/2/1 3/2/1
f 7/1/1 6/1/1 5/1/1
f 8/1/1 6/1/1 7/1/1
f 9/1/2 10/1/2 11/1/2
f 11/1/2 10/1/2 12/1/2
f 13/2/2 14/2/2 15/2/2
f 15/2/2 14/2/2 16/2/2
f 19/2/3 18/2/3 17/2/3
f 20/2/3 18/2/3 19/2/3
f 21/1/3 20/1/3 19/1/3
f 22/1/3 20/1/3 21/1/3
f 25/1/3 24/1/3 23/1/3
f 26/1/3 24/1/3 25/1/3
f 27/2/3 26/2/3 25/2/3
f 28/2/3 26/2/3 27/2/3
f 29/2/4 30/2/4 31/2/4
f 31/2/4 30/2/4 32/2/4
f 31/1/4 32/1/4 33/1/4
f 33/1/4 32/1/4 34/1/4
f 35/1/4 36/1/4 37/1/4
f 37/1/4 36/1/4 38/1/4
f 37/2/4 38/2/4 39/2/4
f 39/2/4 38/2/4 40/2/4
f 47/2/5 42/2/5 41/2/5
f 48/1/5 43/1/5 42/1/5
f 48/2/5 42/2/5 47/2/5
f 49/1/5 43/1/5 48/1/5
f 50/1/5 45/1/5 44/1/5
f 51/2/5 46/2/5 45/2/5
f 51/1/5 45/1/5 50/1/5
f 52/2/5 46/2/5 51/2/5
f 53/2/6 54/2/6 59/2/6
f 54/1/6 55/1/6 60/1/6
f 59/2/6 54/2/6 60/2/6
f 60/1/6 55/1/6 61/1/6
f 56/1/6 57/1/6 62/1/6
f 57/2/6 58/2/6 63/2/6
f 62/1/6 57/1/6 63/1/6
f 63/2/6 58/2/6 64/2/6
