# MagicaVoxel @ Ephtracy

# group
g ama03-12

# material
mtllib ama03-12.mtl
usemtl palette

# normals
vn -1 0 0
vn 1 0 0
vn 0 0 1
vn 0 0 -1
vn 0 -1 0
vn 0 1 0

# texcoords
vt 0.369141 0.5
vt 0.783203 0.5

# verts
v -4 0 4
v -4 0 3
v -4 0 2
v -4 0 1
v -4 0 -0
v -4 0 -1
v -4 2 4
v -4 2 3
v -4 2 2
v -4 2 1
v -4 2 -0
v -4 2 -1
v -4 3 3
v -4 3 2
v -4 3 1
v -4 3 -0
v -4 7 2
v -4 7 1
v 2 0 4
v 2 0 2
v 2 1 4
v 2 1 2
v 3 0 2
v 3 0 1
v 3 1 2
v 3 5 2
v 3 5 1
v -3 0 4
v -3 0 3
v -3 0 2
v -3 0 1
v -3 0 -0
v -3 0 -1
v -3 2 4
v -3 2 3
v -3 2 2
v -3 2 1
v -3 2 -0
v -3 2 -1
v -3 3 3
v -3 3 2
v -3 3 1
v -3 3 -0
v -3 7 2
v -3 7 1
v 4 1 2
v 4 1 1
v 4 5 2
v 4 5 1
v 5 0 4
v 5 0 1
v 5 1 4
v 5 1 1
v -4 0 4
v -4 2 4
v -3 0 4
v -3 2 4
v 2 0 4
v 2 1 4
v 5 0 4
v 5 1 4
v -4 2 3
v -4 3 3
v -3 2 3
v -3 3 3
v -4 0 2
v -4 2 2
v -4 3 2
v -4 7 2
v -3 0 2
v -3 2 2
v -3 3 2
v -3 7 2
v 3 1 2
v 3 5 2
v 4 1 2
v 4 5 2
v -4 0 -0
v -4 2 -0
v -3 0 -0
v -3 2 -0
v -4 0 3
v -4 2 3
v -3 0 3
v -3 2 3
v 2 0 2
v 2 1 2
v 3 0 2
v 3 1 2
v -4 0 1
v -4 2 1
v -4 3 1
v -4 7 1
v -3 0 1
v -3 2 1
v -3 3 1
v -3 7 1
v 3 0 1
v 3 5 1
v 4 1 1
v 4 5 1
v 5 0 1
v 5 1 1
v -4 2 -0
v -4 3 -0
v -3 2 -0
v -3 3 -0
v -4 0 -1
v -4 2 -1
v -3 0 -1
v -3 2 -1
v -4 0 4
v -3 0 4
v 2 0 4
v 5 0 4
v -4 0 3
v -3 0 3
v -4 0 2
v -3 0 2
v 2 0 2
v 3 0 2
v -4 0 1
v -3 0 1
v 3 0 1
v 5 0 1
v -4 0 -0
v -3 0 -0
v -4 0 -1
v -3 0 -1
v -4 2 3
v -3 2 3
v -4 2 2
v -3 2 2
v -4 2 1
v -3 2 1
v -4 2 -0
v -3 2 -0
v 2 1 4
v 5 1 4
v 2 1 2
v 3 1 2
v 4 1 2
v 4 1 1
v 5 1 1
v -4 2 4
v -3 2 4
v -4 2 3
v -3 2 3
v -4 2 -0
v -3 2 -0
v -4 2 -1
v -3 2 -1
v -4 3 3
v -3 3 3
v -4 3 2
v -3 3 2
v -4 3 1
v -3 3 1
v -4 3 -0
v -3 3 -0
v 3 5 2
v 4 5 2
v 3 5 1
v 4 5 1
v -4 7 2
v -3 7 2
v -4 7 1
v -3 7 1

# faces
f 7/1/1 2/1/1 1/1/1
f 8/1/1 2/1/1 7/1/1
f 9/1/1 4/1/1 3/1/1
f 10/1/1 4/1/1 9/1/1
f 11/1/1 6/1/1 5/1/1
f 12/1/1 6/1/1 11/1/1
f 13/1/1 10/1/1 9/1/1
f 13/1/1 11/1/1 10/1/1
f 13/1/1 9/1/1 8/1/1
f 14/1/1 11/1/1 13/1/1
f 15/1/1 11/1/1 14/1/1
f 16/1/1 11/1/1 15/1/1
f 17/1/1 15/1/1 14/1/1
f 18/1/1 15/1/1 17/1/1
f 21/2/1 20/2/1 19/2/1
f 22/2/1 20/2/1 21/2/1
f 25/2/1 24/2/1 23/2/1
f 26/2/1 24/2/1 25/2/1
f 27/2/1 24/2/1 26/2/1
f 28/1/2 29/1/2 34/1/2
f 34/1/2 29/1/2 35/1/2
f 30/1/2 31/1/2 36/1/2
f 36/1/2 31/1/2 37/1/2
f 32/1/2 33/1/2 38/1/2
f 38/1/2 33/1/2 39/1/2
f 36/1/2 37/1/2 40/1/2
f 37/1/2 38/1/2 40/1/2
f 35/1/2 36/1/2 40/1/2
f 40/1/2 38/1/2 41/1/2
f 41/1/2 38/1/2 42/1/2
f 42/1/2 38/1/2 43/1/2
f 41/1/2 42/1/2 44/1/2
f 44/1/2 42/1/2 45/1/2
f 46/2/2 47/2/2 48/2/2
f 48/2/2 47/2/2 49/2/2
f 50/2/2 51/2/2 52/2/2
f 52/2/2 51/2/2 53/2/2
f 56/1/3 55/1/3 54/1/3
f 57/1/3 55/1/3 56/1/3
f 60/2/3 59/2/3 58/2/3
f 61/2/3 59/2/3 60/2/3
f 64/1/3 63/1/3 62/1/3
f 65/1/3 63/1/3 64/1/3
f 70/1/3 67/1/3 66/1/3
f 71/1/3 67/1/3 70/1/3
f 72/1/3 69/1/3 68/1/3
f 73/1/3 69/1/3 72/1/3
f 76/2/3 75/2/3 74/2/3
f 77/2/3 75/2/3 76/2/3
f 80/1/3 79/1/3 78/1/3
f 81/1/3 79/1/3 80/1/3
f 82/1/4 83/1/4 84/1/4
f 84/1/4 83/1/4 85/1/4
f 86/2/4 87/2/4 88/2/4
f 88/2/4 87/2/4 89/2/4
f 90/1/4 91/1/4 94/1/4
f 94/1/4 91/1/4 95/1/4
f 92/1/4 93/1/4 96/1/4
f 96/1/4 93/1/4 97/1/4
f 98/2/4 99/2/4 100/2/4
f 100/2/4 99/2/4 101/2/4
f 98/2/4 100/2/4 102/2/4
f 102/2/4 100/2/4 103/2/4
f 104/1/4 105/1/4 106/1/4
f 106/1/4 105/1/4 107/1/4
f 108/1/4 109/1/4 110/1/4
f 110/1/4 109/1/4 111/1/4
f 116/1/5 113/1/5 112/1/5
f 117/1/5 113/1/5 116/1/5
f 120/2/5 115/2/5 114/2/5
f 121/2/5 115/2/5 120/2/5
f 122/1/5 119/1/5 118/1/5
f 123/1/5 119/1/5 122/1/5
f 124/2/5 115/2/5 121/2/5
f 125/2/5 115/2/5 124/2/5
f 128/1/5 127/1/5 126/1/5
f 129/1/5 127/1/5 128/1/5
f 132/1/5 131/1/5 130/1/5
f 133/1/5 131/1/5 132/1/5
f 136/1/5 135/1/5 134/1/5
f 137/1/5 135/1/5 136/1/5
f 138/2/6 139/2/6 140/2/6
f 140/2/6 139/2/6 141/2/6
f 141/2/6 139/2/6 142/2/6
f 142/2/6 139/2/6 143/2/6
f 143/2/6 139/2/6 144/2/6
f 145/1/6 146/1/6 147/1/6
f 147/1/6 146/1/6 148/1/6
f 149/1/6 150/1/6 151/1/6
f 151/1/6 150/1/6 152/1/6
f 153/1/6 154/1/6 155/1/6
f 155/1/6 154/1/6 156/1/6
f 157/1/6 158/1/6 159/1/6
f 159/1/6 158/1/6 160/1/6
f 161/2/6 162/2/6 163/2/6
f 163/2/6 162/2/6 164/2/6
f 165/1/6 166/1/6 167/1/6
f 167/1/6 166/1/6 168/1/6
