# MagicaVoxel @ Ephtracy

# group
g grandma03-12

# material
mtllib grandma03-12.mtl
usemtl palette

# normals
vn -1 0 0
vn 1 0 0
vn 0 0 1
vn 0 0 -1
vn 0 -1 0
vn 0 1 0

# texcoords
vt 0.537109 0.5
vt 0.978516 0.5

# verts
v -4 0 5
v -4 0 4
v -4 0 3
v -4 0 2
v -4 1 5
v -4 1 4
v -4 1 3
v -4 1 2
v -4 2 4
v -4 2 3
v -4 4 4
v -4 4 3
v -4 4 2
v -4 4 1
v -4 5 5
v -4 5 1
v 3 0 5
v 3 0 4
v 3 0 3
v 3 0 2
v 3 1 5
v 3 1 4
v 3 1 3
v 3 1 2
v 3 2 5
v 3 2 4
v 3 2 3
v 3 4 5
v 3 4 4
v 3 4 3
v 3 4 2
v 3 4 1
v 3 5 4
v 3 5 1
v -3 0 5
v -3 0 4
v -3 0 3
v -3 0 2
v -3 1 5
v -3 1 4
v -3 1 3
v -3 1 2
v -3 2 5
v -3 2 4
v -3 2 3
v -3 4 5
v -3 4 4
v -3 4 3
v -3 4 2
v -3 4 1
v -3 5 4
v -3 5 1
v 4 0 5
v 4 0 4
v 4 0 3
v 4 0 2
v 4 1 5
v 4 1 4
v 4 1 3
v 4 1 2
v 4 2 4
v 4 2 3
v 4 4 4
v 4 4 3
v 4 4 2
v 4 4 1
v 4 5 5
v 4 5 1
v -4 0 5
v -4 1 5
v -4 5 5
v -3 0 5
v -3 1 5
v -3 2 5
v -3 4 5
v 3 0 5
v 3 1 5
v 3 2 5
v 3 4 5
v 4 0 5
v 4 1 5
v 4 5 5
v -4 0 3
v -4 1 3
v -4 2 3
v -4 4 3
v -3 0 3
v -3 1 3
v -3 2 3
v -3 4 3
v 3 0 3
v 3 1 3
v 3 2 3
v 3 4 3
v 4 0 3
v 4 1 3
v 4 2 3
v 4 4 3
v -4 0 4
v -4 1 4
v -4 2 4
v -4 4 4
v -3 0 4
v -3 1 4
v -3 2 4
v -3 4 4
v -3 5 4
v 3 0 4
v 3 1 4
v 3 2 4
v 3 4 4
v 3 5 4
v 4 0 4
v 4 1 4
v 4 2 4
v 4 4 4
v -4 0 2
v -4 1 2
v -4 4 2
v -3 0 2
v -3 1 2
v -3 4 2
v 3 0 2
v 3 1 2
v 3 4 2
v 4 0 2
v 4 1 2
v 4 4 2
v -4 4 1
v -4 5 1
v -3 4 1
v -3 5 1
v 3 4 1
v 3 5 1
v 4 4 1
v 4 5 1
v -4 0 5
v -3 0 5
v 3 0 5
v 4 0 5
v -4 0 4
v -3 0 4
v 3 0 4
v 4 0 4
v -4 0 3
v -3 0 3
v 3 0 3
v 4 0 3
v -4 0 2
v -3 0 2
v 3 0 2
v 4 0 2
v -3 1 5
v 3 1 5
v -4 1 4
v -3 1 4
v 3 1 4
v 4 1 4
v -4 1 3
v -3 1 3
v 3 1 3
v 4 1 3
v -3 4 5
v 3 4 5
v -4 4 4
v -3 4 4
v 3 4 4
v 4 4 4
v -4 4 3
v -3 4 3
v 3 4 3
v 4 4 3
v -4 4 2
v -3 4 2
v 3 4 2
v 4 4 2
v -4 4 1
v -3 4 1
v 3 4 1
v 4 4 1
v -3 2 5
v 3 2 5
v -4 2 4
v -3 2 4
v 3 2 4
v 4 2 4
v -4 2 3
v -3 2 3
v 3 2 3
v 4 2 3
v -4 5 5
v 4 5 5
v -3 5 4
v 3 5 4
v -4 5 1
v -3 5 1
v 3 5 1
v 4 5 1

# faces
f 5/1/1 2/1/1 1/1/1
f 6/1/1 2/1/1 5/1/1
f 7/1/1 4/1/1 3/1/1
f 8/1/1 4/1/1 7/1/1
f 9/2/1 6/2/1 5/2/1
f 9/2/1 7/2/1 6/2/1
f 9/2/1 8/2/1 7/2/1
f 10/2/1 8/2/1 9/2/1
f 11/2/1 9/2/1 5/2/1
f 12/2/1 8/2/1 10/2/1
f 13/2/1 8/2/1 12/2/1
f 15/2/1 13/2/1 12/2/1
f 15/2/1 14/2/1 13/2/1
f 15/2/1 12/2/1 11/2/1
f 15/2/1 11/2/1 5/2/1
f 16/2/1 14/2/1 15/2/1
f 21/1/1 18/1/1 17/1/1
f 22/1/1 18/1/1 21/1/1
f 23/1/1 20/1/1 19/1/1
f 24/1/1 20/1/1 23/1/1
f 26/2/1 23/2/1 22/2/1
f 26/2/1 24/2/1 23/2/1
f 27/2/1 24/2/1 26/2/1
f 28/2/1 26/2/1 25/2/1
f 29/2/1 26/2/1 28/2/1
f 30/2/1 24/2/1 27/2/1
f 31/2/1 24/2/1 30/2/1
f 33/2/1 31/2/1 30/2/1
f 33/2/1 32/2/1 31/2/1
f 33/2/1 30/2/1 29/2/1
f 34/2/1 32/2/1 33/2/1
f 35/1/2 36/1/2 39/1/2
f 39/1/2 36/1/2 40/1/2
f 37/1/2 38/1/2 41/1/2
f 41/1/2 38/1/2 42/1/2
f 40/2/2 41/2/2 44/2/2
f 41/2/2 42/2/2 44/2/2
f 44/2/2 42/2/2 45/2/2
f 43/2/2 44/2/2 46/2/2
f 46/2/2 44/2/2 47/2/2
f 45/2/2 42/2/2 48/2/2
f 48/2/2 42/2/2 49/2/2
f 48/2/2 49/2/2 51/2/2
f 49/2/2 50/2/2 51/2/2
f 47/2/2 48/2/2 51/2/2
f 51/2/2 50/2/2 52/2/2
f 53/1/2 54/1/2 57/1/2
f 57/1/2 54/1/2 58/1/2
f 55/1/2 56/1/2 59/1/2
f 59/1/2 56/1/2 60/1/2
f 57/2/2 58/2/2 61/2/2
f 58/2/2 59/2/2 61/2/2
f 59/2/2 60/2/2 61/2/2
f 61/2/2 60/2/2 62/2/2
f 57/2/2 61/2/2 63/2/2
f 62/2/2 60/2/2 64/2/2
f 64/2/2 60/2/2 65/2/2
f 64/2/2 65/2/2 67/2/2
f 65/2/2 66/2/2 67/2/2
f 63/2/2 64/2/2 67/2/2
f 57/2/2 63/2/2 67/2/2
f 67/2/2 66/2/2 68/2/2
f 72/1/3 70/1/3 69/1/3
f 73/2/3 71/2/3 70/2/3
f 73/1/3 70/1/3 72/1/3
f 74/2/3 71/2/3 73/2/3
f 75/2/3 71/2/3 74/2/3
f 77/2/3 74/2/3 73/2/3
f 78/2/3 74/2/3 77/2/3
f 79/2/3 71/2/3 75/2/3
f 80/1/3 77/1/3 76/1/3
f 81/2/3 78/2/3 77/2/3
f 81/1/3 77/1/3 80/1/3
f 81/2/3 79/2/3 78/2/3
f 82/2/3 71/2/3 79/2/3
f 82/2/3 79/2/3 81/2/3
f 87/1/3 84/1/3 83/1/3
f 88/1/3 84/1/3 87/1/3
f 89/2/3 86/2/3 85/2/3
f 90/2/3 86/2/3 89/2/3
f 95/1/3 92/1/3 91/1/3
f 96/1/3 92/1/3 95/1/3
f 97/2/3 94/2/3 93/2/3
f 98/2/3 94/2/3 97/2/3
f 99/1/4 100/1/4 103/1/4
f 103/1/4 100/1/4 104/1/4
f 101/2/4 102/2/4 105/2/4
f 105/2/4 102/2/4 106/2/4
f 104/2/4 105/2/4 109/2/4
f 109/2/4 105/2/4 110/2/4
f 106/2/4 107/2/4 111/2/4
f 111/2/4 107/2/4 112/2/4
f 108/1/4 109/1/4 113/1/4
f 113/1/4 109/1/4 114/1/4
f 110/2/4 111/2/4 115/2/4
f 115/2/4 111/2/4 116/2/4
f 117/1/4 118/1/4 120/1/4
f 118/2/4 119/2/4 121/2/4
f 120/1/4 118/1/4 121/1/4
f 121/2/4 119/2/4 122/2/4
f 123/1/4 124/1/4 126/1/4
f 124/2/4 125/2/4 127/2/4
f 126/1/4 124/1/4 127/1/4
f 127/2/4 125/2/4 128/2/4
f 129/2/4 130/2/4 131/2/4
f 131/2/4 130/2/4 132/2/4
f 133/2/4 134/2/4 135/2/4
f 135/2/4 134/2/4 136/2/4
f 141/1/5 138/1/5 137/1/5
f 142/1/5 138/1/5 141/1/5
f 143/1/5 140/1/5 139/1/5
f 144/1/5 140/1/5 143/1/5
f 149/1/5 146/1/5 145/1/5
f 150/1/5 146/1/5 149/1/5
f 151/1/5 148/1/5 147/1/5
f 152/1/5 148/1/5 151/1/5
f 156/2/5 154/2/5 153/2/5
f 157/2/5 154/2/5 156/2/5
f 159/2/5 156/2/5 155/2/5
f 160/2/5 156/2/5 159/2/5
f 161/2/5 158/2/5 157/2/5
f 162/2/5 158/2/5 161/2/5
f 166/2/5 164/2/5 163/2/5
f 167/2/5 164/2/5 166/2/5
f 169/2/5 166/2/5 165/2/5
f 170/2/5 166/2/5 169/2/5
f 171/2/5 168/2/5 167/2/5
f 172/2/5 168/2/5 171/2/5
f 177/2/5 174/2/5 173/2/5
f 178/2/5 174/2/5 177/2/5
f 179/2/5 176/2/5 175/2/5
f 180/2/5 176/2/5 179/2/5
f 181/2/6 182/2/6 184/2/6
f 184/2/6 182/2/6 185/2/6
f 183/2/6 184/2/6 187/2/6
f 187/2/6 184/2/6 188/2/6
f 185/2/6 186/2/6 189/2/6
f 189/2/6 186/2/6 190/2/6
f 191/2/6 192/2/6 193/2/6
f 193/2/6 192/2/6 194/2/6
f 191/2/6 193/2/6 195/2/6
f 195/2/6 193/2/6 196/2/6
f 194/2/6 192/2/6 197/2/6
f 197/2/6 192/2/6 198/2/6
