# MagicaVoxel @ Ephtracy

# group
g ama02-0

# material
mtllib ama02-0.mtl
usemtl palette

# normals
vn -1 0 0
vn 1 0 0
vn 0 0 1
vn 0 0 -1
vn 0 -1 0
vn 0 1 0

# texcoords
vt 0.0332031 0.5
vt 0.853516 0.5
vt 0.994141 0.5

# verts
v -4 4 1.5
v -4 4 -0.5
v -4 5 1.5
v -4 5 0.5
v -4 6 0.5
v -4 6 -0.5
v -3 1 2.5
v -3 1 -2.5
v -3 4 1.5
v -3 4 -0.5
v -3 5 1.5
v -3 5 0.5
v -3 6 0.5
v -3 6 -0.5
v -3 7 2.5
v -3 7 -2.5
v -3 12 2.5
v -3 12 -2.5
v -2 0 0.5
v -2 0 -0.5
v -2 1 0.5
v -2 1 -0.5
v 1 0 0.5
v 1 0 -0.5
v 1 1 0.5
v 1 1 -0.5
v -1 0 0.5
v -1 0 -0.5
v -1 1 0.5
v -1 1 -0.5
v 2 0 0.5
v 2 0 -0.5
v 2 1 0.5
v 2 1 -0.5
v 3 1 2.5
v 3 1 -2.5
v 3 4 1.5
v 3 4 -0.5
v 3 5 1.5
v 3 5 0.5
v 3 6 0.5
v 3 6 -0.5
v 3 7 2.5
v 3 7 -2.5
v 3 12 2.5
v 3 12 -2.5
v 4 4 1.5
v 4 4 -0.5
v 4 5 1.5
v 4 5 0.5
v 4 6 0.5
v 4 6 -0.5
v -3 1 2.5
v -3 7 2.5
v -3 12 2.5
v -2 6 2.5
v -2 7 2.5
v -2 8 2.5
v -2 9 2.5
v -1 8 2.5
v -1 9 2.5
v 1 8 2.5
v 1 9 2.5
v 2 6 2.5
v 2 7 2.5
v 2 8 2.5
v 2 9 2.5
v 3 1 2.5
v 3 7 2.5
v 3 12 2.5
v -4 4 1.5
v -4 5 1.5
v -3 4 1.5
v -3 5 1.5
v 3 4 1.5
v 3 5 1.5
v 4 4 1.5
v 4 5 1.5
v -4 5 0.5
v -4 6 0.5
v -3 5 0.5
v -3 6 0.5
v -2 0 0.5
v -2 1 0.5
v -1 0 0.5
v -1 1 0.5
v 1 0 0.5
v 1 1 0.5
v 2 0 0.5
v 2 1 0.5
v 3 5 0.5
v 3 6 0.5
v 4 5 0.5
v 4 6 0.5
v -4 4 -0.5
v -4 6 -0.5
v -3 4 -0.5
v -3 6 -0.5
v -2 0 -0.5
v -2 1 -0.5
v -1 0 -0.5
v -1 1 -0.5
v 1 0 -0.5
v 1 1 -0.5
v 2 0 -0.5
v 2 1 -0.5
v 3 4 -0.5
v 3 6 -0.5
v 4 4 -0.5
v 4 6 -0.5
v -3 1 -2.5
v -3 7 -2.5
v -3 12 -2.5
v 3 1 -2.5
v 3 7 -2.5
v 3 12 -2.5
v -2 0 0.5
v -1 0 0.5
v 1 0 0.5
v 2 0 0.5
v -2 0 -0.5
v -1 0 -0.5
v 1 0 -0.5
v 2 0 -0.5
v -3 1 2.5
v 3 1 2.5
v -2 1 0.5
v -1 1 0.5
v 1 1 0.5
v 2 1 0.5
v -2 1 -0.5
v -1 1 -0.5
v 1 1 -0.5
v 2 1 -0.5
v -3 1 -2.5
v 3 1 -2.5
v -4 4 1.5
v -3 4 1.5
v 3 4 1.5
v 4 4 1.5
v -4 4 -0.5
v -3 4 -0.5
v 3 4 -0.5
v 4 4 -0.5
v -4 5 1.5
v -3 5 1.5
v 3 5 1.5
v 4 5 1.5
v -4 5 0.5
v -3 5 0.5
v 3 5 0.5
v 4 5 0.5
v -4 6 0.5
v -3 6 0.5
v 3 6 0.5
v 4 6 0.5
v -4 6 -0.5
v -3 6 -0.5
v 3 6 -0.5
v 4 6 -0.5
v -3 12 2.5
v 3 12 2.5
v -3 12 -2.5
v 3 12 -2.5

# faces
f 3/1/1 2/1/1 1/1/1
f 4/1/1 2/1/1 3/1/1
f 5/1/1 2/1/1 4/1/1
f 6/1/1 2/1/1 5/1/1
f 9/2/1 8/2/1 7/2/1
f 10/2/1 8/2/1 9/2/1
f 11/2/1 9/2/1 7/2/1
f 13/2/1 12/2/1 11/2/1
f 14/2/1 8/2/1 10/2/1
f 15/2/1 13/2/1 11/2/1
f 15/2/1 14/2/1 13/2/1
f 15/2/1 11/2/1 7/2/1
f 16/2/1 8/2/1 14/2/1
f 16/2/1 14/2/1 15/2/1
f 17/1/1 16/1/1 15/1/1
f 18/1/1 16/1/1 17/1/1
f 21/2/1 20/2/1 19/2/1
f 22/2/1 20/2/1 21/2/1
f 25/2/1 24/2/1 23/2/1
f 26/2/1 24/2/1 25/2/1
f 27/2/2 28/2/2 29/2/2
f 29/2/2 28/2/2 30/2/2
f 31/2/2 32/2/2 33/2/2
f 33/2/2 32/2/2 34/2/2
f 35/2/2 36/2/2 37/2/2
f 37/2/2 36/2/2 38/2/2
f 35/2/2 37/2/2 39/2/2
f 39/2/2 40/2/2 41/2/2
f 38/2/2 36/2/2 42/2/2
f 39/2/2 41/2/2 43/2/2
f 41/2/2 42/2/2 43/2/2
f 35/2/2 39/2/2 43/2/2
f 42/2/2 36/2/2 44/2/2
f 43/2/2 42/2/2 44/2/2
f 43/1/2 44/1/2 45/1/2
f 45/1/2 44/1/2 46/1/2
f 47/1/2 48/1/2 49/1/2
f 49/1/2 48/1/2 50/1/2
f 50/1/2 48/1/2 51/1/2
f 51/1/2 48/1/2 52/1/2
f 56/2/3 54/2/3 53/2/3
f 57/1/3 55/1/3 54/1/3
f 57/2/3 54/2/3 56/2/3
f 58/1/3 55/1/3 57/1/3
f 59/1/3 55/1/3 58/1/3
f 60/1/3 57/1/3 56/1/3
f 60/1/3 58/1/3 57/1/3
f 60/3/3 59/3/3 58/3/3
f 61/1/3 55/1/3 59/1/3
f 61/3/3 59/3/3 60/3/3
f 62/1/3 60/1/3 56/1/3
f 62/1/3 61/1/3 60/1/3
f 63/1/3 55/1/3 61/1/3
f 63/1/3 61/1/3 62/1/3
f 64/2/3 56/2/3 53/2/3
f 64/1/3 62/1/3 56/1/3
f 65/1/3 62/1/3 64/1/3
f 66/3/3 63/3/3 62/3/3
f 66/1/3 62/1/3 65/1/3
f 67/1/3 55/1/3 63/1/3
f 67/3/3 63/3/3 66/3/3
f 68/2/3 65/2/3 64/2/3
f 68/2/3 64/2/3 53/2/3
f 69/1/3 66/1/3 65/1/3
f 69/2/3 65/2/3 68/2/3
f 69/1/3 67/1/3 66/1/3
f 70/1/3 55/1/3 67/1/3
f 70/1/3 67/1/3 69/1/3
f 73/1/3 72/1/3 71/1/3
f 74/1/3 72/1/3 73/1/3
f 77/1/3 76/1/3 75/1/3
f 78/1/3 76/1/3 77/1/3
f 81/1/3 80/1/3 79/1/3
f 82/1/3 80/1/3 81/1/3
f 85/2/3 84/2/3 83/2/3
f 86/2/3 84/2/3 85/2/3
f 89/2/3 88/2/3 87/2/3
f 90/2/3 88/2/3 89/2/3
f 93/1/3 92/1/3 91/1/3
f 94/1/3 92/1/3 93/1/3
f 95/1/4 96/1/4 97/1/4
f 97/1/4 96/1/4 98/1/4
f 99/2/4 100/2/4 101/2/4
f 101/2/4 100/2/4 102/2/4
f 103/2/4 104/2/4 105/2/4
f 105/2/4 104/2/4 106/2/4
f 107/1/4 108/1/4 109/1/4
f 109/1/4 108/1/4 110/1/4
f 111/2/4 112/2/4 114/2/4
f 112/1/4 113/1/4 115/1/4
f 114/2/4 112/2/4 115/2/4
f 115/1/4 113/1/4 116/1/4
f 121/2/5 118/2/5 117/2/5
f 122/2/5 118/2/5 121/2/5
f 123/2/5 120/2/5 119/2/5
f 124/2/5 120/2/5 123/2/5
f 127/2/5 126/2/5 125/2/5
f 128/2/5 126/2/5 127/2/5
f 129/2/5 126/2/5 128/2/5
f 130/2/5 126/2/5 129/2/5
f 131/2/5 127/2/5 125/2/5
f 132/2/5 129/2/5 128/2/5
f 133/2/5 129/2/5 132/2/5
f 134/2/5 126/2/5 130/2/5
f 135/2/5 133/2/5 132/2/5
f 135/2/5 134/2/5 133/2/5
f 135/2/5 131/2/5 125/2/5
f 135/2/5 132/2/5 131/2/5
f 136/2/5 126/2/5 134/2/5
f 136/2/5 134/2/5 135/2/5
f 141/1/5 138/1/5 137/1/5
f 142/1/5 138/1/5 141/1/5
f 143/1/5 140/1/5 139/1/5
f 144/1/5 140/1/5 143/1/5
f 145/1/6 146/1/6 149/1/6
f 149/1/6 146/1/6 150/1/6
f 147/1/6 148/1/6 151/1/6
f 151/1/6 148/1/6 152/1/6
f 153/1/6 154/1/6 157/1/6
f 157/1/6 154/1/6 158/1/6
f 155/1/6 156/1/6 159/1/6
f 159/1/6 156/1/6 160/1/6
f 161/1/6 162/1/6 163/1/6
f 163/1/6 162/1/6 164/1/6
