# MagicaVoxel @ Ephtracy

# group
g ama03-0

# material
mtllib ama03-0.mtl
usemtl palette

# normals
vn -1 0 0
vn 1 0 0
vn 0 0 1
vn 0 0 -1
vn 0 -1 0
vn 0 1 0

# texcoords
vt 0.0332031 0.5
vt 0.513672 0.5
vt 0.521484 0.5
vt 0.994141 0.5

# verts
v -4 4 1.5
v -4 4 -0.5
v -4 5 1.5
v -4 5 0.5
v -4 6 0.5
v -4 6 -0.5
v -3 1 2.5
v -3 1 -2.5
v -3 4 2.5
v -3 4 1.5
v -3 4 -0.5
v -3 4 -1.5
v -3 4 -2.5
v -3 5 2.5
v -3 5 1.5
v -3 5 0.5
v -3 5 -1.5
v -3 5 -2.5
v -3 6 0.5
v -3 6 -0.5
v -3 7 2.5
v -3 7 -2.5
v -3 12 2.5
v -3 12 -2.5
v -2 0 0.5
v -2 0 -0.5
v -2 1 0.5
v -2 1 -0.5
v 1 0 0.5
v 1 0 -0.5
v 1 1 0.5
v 1 1 -0.5
v -1 0 0.5
v -1 0 -0.5
v -1 1 0.5
v -1 1 -0.5
v 2 0 0.5
v 2 0 -0.5
v 2 1 0.5
v 2 1 -0.5
v 3 1 2.5
v 3 1 -2.5
v 3 4 2.5
v 3 4 1.5
v 3 4 -0.5
v 3 4 -1.5
v 3 4 -2.5
v 3 5 2.5
v 3 5 1.5
v 3 5 0.5
v 3 5 -1.5
v 3 5 -2.5
v 3 6 0.5
v 3 6 -0.5
v 3 7 2.5
v 3 7 -2.5
v 3 12 2.5
v 3 12 -2.5
v 4 4 1.5
v 4 4 -0.5
v 4 5 1.5
v 4 5 0.5
v 4 6 0.5
v 4 6 -0.5
v -3 1 2.5
v -3 4 2.5
v -3 5 2.5
v -3 7 2.5
v -3 12 2.5
v -2 6 2.5
v -2 7 2.5
v -2 8 2.5
v -2 9 2.5
v -1 3 2.5
v -1 4 2.5
v -1 5 2.5
v -1 8 2.5
v -1 9 2.5
v 1 3 2.5
v 1 4 2.5
v 1 5 2.5
v 1 8 2.5
v 1 9 2.5
v 2 6 2.5
v 2 7 2.5
v 2 8 2.5
v 2 9 2.5
v 3 1 2.5
v 3 4 2.5
v 3 5 2.5
v 3 7 2.5
v 3 12 2.5
v -4 4 1.5
v -4 5 1.5
v -3 4 1.5
v -3 5 1.5
v 3 4 1.5
v 3 5 1.5
v 4 4 1.5
v 4 5 1.5
v -4 5 0.5
v -4 6 0.5
v -3 5 0.5
v -3 6 0.5
v -2 0 0.5
v -2 1 0.5
v -1 0 0.5
v -1 1 0.5
v 1 0 0.5
v 1 1 0.5
v 2 0 0.5
v 2 1 0.5
v 3 5 0.5
v 3 6 0.5
v 4 5 0.5
v 4 6 0.5
v -4 4 -0.5
v -4 6 -0.5
v -3 4 -0.5
v -3 6 -0.5
v -2 0 -0.5
v -2 1 -0.5
v -1 0 -0.5
v -1 1 -0.5
v 1 0 -0.5
v 1 1 -0.5
v 2 0 -0.5
v 2 1 -0.5
v 3 4 -0.5
v 3 6 -0.5
v 4 4 -0.5
v 4 6 -0.5
v -3 1 -2.5
v -3 4 -2.5
v -3 5 -2.5
v -3 7 -2.5
v -3 12 -2.5
v -1 3 -2.5
v -1 4 -2.5
v -1 5 -2.5
v 1 3 -2.5
v 1 4 -2.5
v 1 5 -2.5
v 3 1 -2.5
v 3 4 -2.5
v 3 5 -2.5
v 3 7 -2.5
v 3 12 -2.5
v -2 0 0.5
v -1 0 0.5
v 1 0 0.5
v 2 0 0.5
v -2 0 -0.5
v -1 0 -0.5
v 1 0 -0.5
v 2 0 -0.5
v -3 1 2.5
v 3 1 2.5
v -2 1 0.5
v -1 1 0.5
v 1 1 0.5
v 2 1 0.5
v -2 1 -0.5
v -1 1 -0.5
v 1 1 -0.5
v 2 1 -0.5
v -3 1 -2.5
v 3 1 -2.5
v -4 4 1.5
v -3 4 1.5
v 3 4 1.5
v 4 4 1.5
v -4 4 -0.5
v -3 4 -0.5
v 3 4 -0.5
v 4 4 -0.5
v -4 5 1.5
v -3 5 1.5
v 3 5 1.5
v 4 5 1.5
v -4 5 0.5
v -3 5 0.5
v 3 5 0.5
v 4 5 0.5
v -4 6 0.5
v -3 6 0.5
v 3 6 0.5
v 4 6 0.5
v -4 6 -0.5
v -3 6 -0.5
v 3 6 -0.5
v 4 6 -0.5
v -3 12 2.5
v 3 12 2.5
v -3 12 -2.5
v 3 12 -2.5

# faces
f 3/1/1 2/1/1 1/1/1
f 4/1/1 2/1/1 3/1/1
f 5/1/1 2/1/1 4/1/1
f 6/1/1 2/1/1 5/1/1
f 9/3/1 8/3/1 7/3/1
f 10/3/1 8/3/1 9/3/1
f 11/3/1 8/3/1 10/3/1
f 12/3/1 8/3/1 11/3/1
f 13/3/1 8/3/1 12/3/1
f 14/2/1 10/2/1 9/2/1
f 15/2/1 10/2/1 14/2/1
f 17/2/1 13/2/1 12/2/1
f 17/3/1 12/3/1 11/3/1
f 18/2/1 13/2/1 17/2/1
f 19/3/1 16/3/1 15/3/1
f 19/3/1 15/3/1 14/3/1
f 20/3/1 18/3/1 17/3/1
f 20/3/1 17/3/1 11/3/1
f 21/3/1 19/3/1 14/3/1
f 21/3/1 20/3/1 19/3/1
f 22/3/1 18/3/1 20/3/1
f 22/3/1 20/3/1 21/3/1
f 23/1/1 22/1/1 21/1/1
f 24/1/1 22/1/1 23/1/1
f 27/3/1 26/3/1 25/3/1
f 28/3/1 26/3/1 27/3/1
f 31/3/1 30/3/1 29/3/1
f 32/3/1 30/3/1 31/3/1
f 33/3/2 34/3/2 35/3/2
f 35/3/2 34/3/2 36/3/2
f 37/3/2 38/3/2 39/3/2
f 39/3/2 38/3/2 40/3/2
f 41/3/2 42/3/2 43/3/2
f 43/3/2 42/3/2 44/3/2
f 44/3/2 42/3/2 45/3/2
f 45/3/2 42/3/2 46/3/2
f 46/3/2 42/3/2 47/3/2
f 43/2/2 44/2/2 48/2/2
f 48/2/2 44/2/2 49/2/2
f 46/2/2 47/2/2 51/2/2
f 45/3/2 46/3/2 51/3/2
f 51/2/2 47/2/2 52/2/2
f 49/3/2 50/3/2 53/3/2
f 48/3/2 49/3/2 53/3/2
f 51/3/2 52/3/2 54/3/2
f 45/3/2 51/3/2 54/3/2
f 48/3/2 53/3/2 55/3/2
f 53/3/2 54/3/2 55/3/2
f 54/3/2 52/3/2 56/3/2
f 55/3/2 54/3/2 56/3/2
f 55/1/2 56/1/2 57/1/2
f 57/1/2 56/1/2 58/1/2
f 59/1/2 60/1/2 61/1/2
f 61/1/2 60/1/2 62/1/2
f 62/1/2 60/1/2 63/1/2
f 63/1/2 60/1/2 64/1/2
f 70/3/3 68/3/3 67/3/3
f 71/1/3 69/1/3 68/1/3
f 71/3/3 68/3/3 70/3/3
f 72/1/3 69/1/3 71/1/3
f 73/1/3 69/1/3 72/1/3
f 74/3/3 66/3/3 65/3/3
f 75/2/3 67/2/3 66/2/3
f 75/3/3 66/3/3 74/3/3
f 76/3/3 70/3/3 67/3/3
f 76/2/3 67/2/3 75/2/3
f 77/1/3 71/1/3 70/1/3
f 77/1/3 72/1/3 71/1/3
f 77/4/3 73/4/3 72/4/3
f 78/1/3 69/1/3 73/1/3
f 78/4/3 73/4/3 77/4/3
f 79/3/3 74/3/3 65/3/3
f 79/2/3 75/2/3 74/2/3
f 80/3/3 76/3/3 75/3/3
f 80/2/3 75/2/3 79/2/3
f 81/3/3 70/3/3 76/3/3
f 81/3/3 76/3/3 80/3/3
f 82/1/3 77/1/3 70/1/3
f 82/1/3 78/1/3 77/1/3
f 83/1/3 69/1/3 78/1/3
f 83/1/3 78/1/3 82/1/3
f 84/3/3 70/3/3 81/3/3
f 84/1/3 82/1/3 70/1/3
f 85/1/3 82/1/3 84/1/3
f 86/4/3 83/4/3 82/4/3
f 86/1/3 82/1/3 85/1/3
f 87/1/3 69/1/3 83/1/3
f 87/4/3 83/4/3 86/4/3
f 88/3/3 80/3/3 79/3/3
f 88/3/3 79/3/3 65/3/3
f 89/2/3 81/2/3 80/2/3
f 89/3/3 80/3/3 88/3/3
f 90/3/3 85/3/3 84/3/3
f 90/2/3 81/2/3 89/2/3
f 90/3/3 84/3/3 81/3/3
f 91/1/3 86/1/3 85/1/3
f 91/3/3 85/3/3 90/3/3
f 91/1/3 87/1/3 86/1/3
f 92/1/3 69/1/3 87/1/3
f 92/1/3 87/1/3 91/1/3
f 95/1/3 94/1/3 93/1/3
f 96/1/3 94/1/3 95/1/3
f 99/1/3 98/1/3 97/1/3
f 100/1/3 98/1/3 99/1/3
f 103/1/3 102/1/3 101/1/3
f 104/1/3 102/1/3 103/1/3
f 107/3/3 106/3/3 105/3/3
f 108/3/3 106/3/3 107/3/3
f 111/3/3 110/3/3 109/3/3
f 112/3/3 110/3/3 111/3/3
f 115/1/3 114/1/3 113/1/3
f 116/1/3 114/1/3 115/1/3
f 117/1/4 118/1/4 119/1/4
f 119/1/4 118/1/4 120/1/4
f 121/3/4 122/3/4 123/3/4
f 123/3/4 122/3/4 124/3/4
f 125/3/4 126/3/4 127/3/4
f 127/3/4 126/3/4 128/3/4
f 129/1/4 130/1/4 131/1/4
f 131/1/4 130/1/4 132/1/4
f 133/3/4 134/3/4 138/3/4
f 134/2/4 135/2/4 139/2/4
f 138/3/4 134/3/4 139/3/4
f 135/3/4 136/3/4 140/3/4
f 139/2/4 135/2/4 140/2/4
f 133/3/4 138/3/4 141/3/4
f 138/2/4 139/2/4 141/2/4
f 139/3/4 140/3/4 142/3/4
f 141/2/4 139/2/4 142/2/4
f 140/3/4 136/3/4 143/3/4
f 142/3/4 140/3/4 143/3/4
f 141/3/4 142/3/4 144/3/4
f 133/3/4 141/3/4 144/3/4
f 142/2/4 143/2/4 145/2/4
f 144/3/4 142/3/4 145/3/4
f 143/3/4 136/3/4 146/3/4
f 145/2/4 143/2/4 146/2/4
f 136/1/4 137/1/4 147/1/4
f 146/3/4 136/3/4 147/3/4
f 147/1/4 137/1/4 148/1/4
f 153/3/5 150/3/5 149/3/5
f 154/3/5 150/3/5 153/3/5
f 155/3/5 152/3/5 151/3/5
f 156/3/5 152/3/5 155/3/5
f 159/3/5 158/3/5 157/3/5
f 160/3/5 158/3/5 159/3/5
f 161/3/5 158/3/5 160/3/5
f 162/3/5 158/3/5 161/3/5
f 163/3/5 159/3/5 157/3/5
f 164/3/5 161/3/5 160/3/5
f 165/3/5 161/3/5 164/3/5
f 166/3/5 158/3/5 162/3/5
f 167/3/5 165/3/5 164/3/5
f 167/3/5 166/3/5 165/3/5
f 167/3/5 163/3/5 157/3/5
f 167/3/5 164/3/5 163/3/5
f 168/3/5 158/3/5 166/3/5
f 168/3/5 166/3/5 167/3/5
f 173/1/5 170/1/5 169/1/5
f 174/1/5 170/1/5 173/1/5
f 175/1/5 172/1/5 171/1/5
f 176/1/5 172/1/5 175/1/5
f 177/1/6 178/1/6 181/1/6
f 181/1/6 178/1/6 182/1/6
f 179/1/6 180/1/6 183/1/6
f 183/1/6 180/1/6 184/1/6
f 185/1/6 186/1/6 189/1/6
f 189/1/6 186/1/6 190/1/6
f 187/1/6 188/1/6 191/1/6
f 191/1/6 188/1/6 192/1/6
f 193/1/6 194/1/6 195/1/6
f 195/1/6 194/1/6 196/1/6
