# MagicaVoxel @ Ephtracy

# group
g grandma03-0

# material
mtllib grandma03-0.mtl
usemtl palette

# normals
vn -1 0 0
vn 1 0 0
vn 0 0 1
vn 0 0 -1
vn 0 -1 0
vn 0 1 0

# texcoords
vt 0.0332031 0.5
vt 0.0839844 0.5
vt 0.201172 0.5
vt 0.275391 0.5
vt 0.470703 0.5
vt 0.685547 0.5
vt 0.994141 0.5

# verts
v -4 4 1.5
v -4 4 -0.5
v -4 5 1.5
v -4 5 0.5
v -4 6 0.5
v -4 6 -0.5
v -3 1 2.5
v -3 1 -2.5
v -3 4 1.5
v -3 4 -0.5
v -3 5 1.5
v -3 5 0.5
v -3 6 0.5
v -3 6 -0.5
v -3 7 2.5
v -3 7 -2.5
v -3 12 2.5
v -3 12 -2.5
v -2 0 0.5
v -2 0 -0.5
v -2 1 0.5
v -2 1 -0.5
v -1 7 4.5
v -1 7 2.5
v -1 8 4.5
v -1 8 2.5
v 1 0 0.5
v 1 0 -0.5
v 1 1 0.5
v 1 1 -0.5
v -1 0 0.5
v -1 0 -0.5
v -1 1 0.5
v -1 1 -0.5
v 1 7 4.5
v 1 7 2.5
v 1 8 4.5
v 1 8 2.5
v 2 0 0.5
v 2 0 -0.5
v 2 1 0.5
v 2 1 -0.5
v 3 1 2.5
v 3 1 -2.5
v 3 4 1.5
v 3 4 -0.5
v 3 5 1.5
v 3 5 0.5
v 3 6 0.5
v 3 6 -0.5
v 3 7 2.5
v 3 7 -2.5
v 3 12 2.5
v 3 12 -2.5
v 4 4 1.5
v 4 4 -0.5
v 4 5 1.5
v 4 5 0.5
v 4 6 0.5
v 4 6 -0.5
v -1 7 4.5
v -1 8 4.5
v 1 7 4.5
v 1 8 4.5
v -3 1 2.5
v -3 7 2.5
v -3 12 2.5
v -2 1 2.5
v -2 6 2.5
v -2 7 2.5
v -2 8 2.5
v -2 9 2.5
v -1 1 2.5
v -1 6 2.5
v -1 7 2.5
v -1 8 2.5
v -1 9 2.5
v 1 1 2.5
v 1 6 2.5
v 1 7 2.5
v 1 8 2.5
v 1 9 2.5
v 2 1 2.5
v 2 6 2.5
v 2 7 2.5
v 2 8 2.5
v 2 9 2.5
v 3 1 2.5
v 3 7 2.5
v 3 12 2.5
v -4 4 1.5
v -4 5 1.5
v -3 4 1.5
v -3 5 1.5
v 3 4 1.5
v 3 5 1.5
v 4 4 1.5
v 4 5 1.5
v -4 5 0.5
v -4 6 0.5
v -3 5 0.5
v -3 6 0.5
v -2 0 0.5
v -2 1 0.5
v -1 0 0.5
v -1 1 0.5
v 1 0 0.5
v 1 1 0.5
v 2 0 0.5
v 2 1 0.5
v 3 5 0.5
v 3 6 0.5
v 4 5 0.5
v 4 6 0.5
v -4 4 -0.5
v -4 6 -0.5
v -3 4 -0.5
v -3 6 -0.5
v -2 0 -0.5
v -2 1 -0.5
v -1 0 -0.5
v -1 1 -0.5
v 1 0 -0.5
v 1 1 -0.5
v 2 0 -0.5
v 2 1 -0.5
v 3 4 -0.5
v 3 6 -0.5
v 4 4 -0.5
v 4 6 -0.5
v -3 1 -2.5
v -3 7 -2.5
v -3 12 -2.5
v -2 1 -2.5
v -2 7 -2.5
v -1 1 -2.5
v -1 7 -2.5
v 1 1 -2.5
v 1 7 -2.5
v 2 1 -2.5
v 2 7 -2.5
v 3 1 -2.5
v 3 7 -2.5
v 3 12 -2.5
v -2 0 0.5
v -1 0 0.5
v 1 0 0.5
v 2 0 0.5
v -2 0 -0.5
v -1 0 -0.5
v 1 0 -0.5
v 2 0 -0.5
v -3 1 2.5
v -2 1 2.5
v -1 1 2.5
v 1 1 2.5
v 2 1 2.5
v 3 1 2.5
v -2 1 1.5
v -1 1 1.5
v 1 1 1.5
v 2 1 1.5
v -2 1 0.5
v -1 1 0.5
v 1 1 0.5
v 2 1 0.5
v -2 1 -0.5
v -1 1 -0.5
v 1 1 -0.5
v 2 1 -0.5
v -2 1 -1.5
v -1 1 -1.5
v 1 1 -1.5
v 2 1 -1.5
v -3 1 -2.5
v -2 1 -2.5
v -1 1 -2.5
v 1 1 -2.5
v 2 1 -2.5
v 3 1 -2.5
v -4 4 1.5
v -3 4 1.5
v 3 4 1.5
v 4 4 1.5
v -4 4 -0.5
v -3 4 -0.5
v 3 4 -0.5
v 4 4 -0.5
v -1 7 4.5
v 1 7 4.5
v -1 7 2.5
v 1 7 2.5
v -4 5 1.5
v -3 5 1.5
v 3 5 1.5
v 4 5 1.5
v -4 5 0.5
v -3 5 0.5
v 3 5 0.5
v 4 5 0.5
v -4 6 0.5
v -3 6 0.5
v 3 6 0.5
v 4 6 0.5
v -4 6 -0.5
v -3 6 -0.5
v 3 6 -0.5
v 4 6 -0.5
v -1 8 4.5
v 1 8 4.5
v -1 8 2.5
v 1 8 2.5
v -3 12 2.5
v 3 12 2.5
v -2 12 1.5
v 2 12 1.5
v -2 12 -1.5
v 2 12 -1.5
v -3 12 -2.5
v 3 12 -2.5

# faces
f 3/3/1 2/3/1 1/3/1
f 4/3/1 2/3/1 3/3/1
f 5/3/1 2/3/1 4/3/1
f 6/3/1 2/3/1 5/3/1
f 9/4/1 8/4/1 7/4/1
f 10/4/1 8/4/1 9/4/1
f 11/4/1 9/4/1 7/4/1
f 13/4/1 12/4/1 11/4/1
f 14/4/1 8/4/1 10/4/1
f 15/4/1 13/4/1 11/4/1
f 15/4/1 14/4/1 13/4/1
f 15/4/1 11/4/1 7/4/1
f 16/4/1 8/4/1 14/4/1
f 16/4/1 14/4/1 15/4/1
f 17/3/1 16/3/1 15/3/1
f 18/3/1 16/3/1 17/3/1
f 21/2/1 20/2/1 19/2/1
f 22/2/1 20/2/1 21/2/1
f 25/3/1 24/3/1 23/3/1
f 26/3/1 24/3/1 25/3/1
f 29/2/1 28/2/1 27/2/1
f 30/2/1 28/2/1 29/2/1
f 31/2/2 32/2/2 33/2/2
f 33/2/2 32/2/2 34/2/2
f 35/3/2 36/3/2 37/3/2
f 37/3/2 36/3/2 38/3/2
f 39/2/2 40/2/2 41/2/2
f 41/2/2 40/2/2 42/2/2
f 43/4/2 44/4/2 45/4/2
f 45/4/2 44/4/2 46/4/2
f 43/4/2 45/4/2 47/4/2
f 47/4/2 48/4/2 49/4/2
f 46/4/2 44/4/2 50/4/2
f 47/4/2 49/4/2 51/4/2
f 49/4/2 50/4/2 51/4/2
f 43/4/2 47/4/2 51/4/2
f 50/4/2 44/4/2 52/4/2
f 51/4/2 50/4/2 52/4/2
f 51/3/2 52/3/2 53/3/2
f 53/3/2 52/3/2 54/3/2
f 55/3/2 56/3/2 57/3/2
f 57/3/2 56/3/2 58/3/2
f 58/3/2 56/3/2 59/3/2
f 59/3/2 56/3/2 60/3/2
f 63/3/3 62/3/3 61/3/3
f 64/3/3 62/3/3 63/3/3
f 68/4/3 66/4/3 65/4/3
f 69/4/3 66/4/3 68/4/3
f 70/3/3 67/3/3 66/3/3
f 70/4/3 66/4/3 69/4/3
f 71/3/3 67/3/3 70/3/3
f 72/3/3 67/3/3 71/3/3
f 73/5/3 69/5/3 68/5/3
f 74/3/3 70/3/3 69/3/3
f 74/5/3 69/5/3 73/5/3
f 74/3/3 71/3/3 70/3/3
f 75/3/3 71/3/3 74/3/3
f 76/7/3 72/7/3 71/7/3
f 76/3/3 71/3/3 75/3/3
f 77/3/3 67/3/3 72/3/3
f 77/7/3 72/7/3 76/7/3
f 78/2/3 74/2/3 73/2/3
f 79/3/3 75/3/3 74/3/3
f 79/2/3 74/2/3 78/2/3
f 80/3/3 75/3/3 79/3/3
f 81/3/3 77/3/3 76/3/3
f 82/3/3 67/3/3 77/3/3
f 82/3/3 77/3/3 81/3/3
f 83/5/3 79/5/3 78/5/3
f 84/3/3 81/3/3 80/3/3
f 84/5/3 79/5/3 83/5/3
f 84/3/3 80/3/3 79/3/3
f 85/3/3 81/3/3 84/3/3
f 86/7/3 82/7/3 81/7/3
f 86/3/3 81/3/3 85/3/3
f 87/3/3 67/3/3 82/3/3
f 87/7/3 82/7/3 86/7/3
f 88/4/3 85/4/3 84/4/3
f 88/4/3 84/4/3 83/4/3
f 89/3/3 86/3/3 85/3/3
f 89/4/3 85/4/3 88/4/3
f 89/3/3 87/3/3 86/3/3
f 90/3/3 67/3/3 87/3/3
f 90/3/3 87/3/3 89/3/3
f 93/3/3 92/3/3 91/3/3
f 94/3/3 92/3/3 93/3/3
f 97/3/3 96/3/3 95/3/3
f 98/3/3 96/3/3 97/3/3
f 101/3/3 100/3/3 99/3/3
f 102/3/3 100/3/3 101/3/3
f 105/2/3 104/2/3 103/2/3
f 106/2/3 104/2/3 105/2/3
f 109/2/3 108/2/3 107/2/3
f 110/2/3 108/2/3 109/2/3
f 113/3/3 112/3/3 111/3/3
f 114/3/3 112/3/3 113/3/3
f 115/3/4 116/3/4 117/3/4
f 117/3/4 116/3/4 118/3/4
f 119/2/4 120/2/4 121/2/4
f 121/2/4 120/2/4 122/2/4
f 123/2/4 124/2/4 125/2/4
f 125/2/4 124/2/4 126/2/4
f 127/3/4 128/3/4 129/3/4
f 129/3/4 128/3/4 130/3/4
f 131/4/4 132/4/4 134/4/4
f 132/3/4 133/3/4 135/3/4
f 134/4/4 132/4/4 135/4/4
f 134/5/4 135/5/4 136/5/4
f 135/3/4 133/3/4 137/3/4
f 136/5/4 135/5/4 137/5/4
f 136/4/4 137/4/4 138/4/4
f 137/3/4 133/3/4 139/3/4
f 138/4/4 137/4/4 139/4/4
f 138/5/4 139/5/4 140/5/4
f 139/3/4 133/3/4 141/3/4
f 140/5/4 139/5/4 141/5/4
f 140/4/4 141/4/4 142/4/4
f 141/3/4 133/3/4 143/3/4
f 142/4/4 141/4/4 143/4/4
f 143/3/4 133/3/4 144/3/4
f 149/2/5 146/2/5 145/2/5
f 150/2/5 146/2/5 149/2/5
f 151/2/5 148/2/5 147/2/5
f 152/2/5 148/2/5 151/2/5
f 159/4/5 154/4/5 153/4/5
f 159/5/5 155/5/5 154/5/5
f 160/2/5 156/2/5 155/2/5
f 160/5/5 155/5/5 159/5/5
f 161/5/5 157/5/5 156/5/5
f 161/2/5 156/2/5 160/2/5
f 162/4/5 158/4/5 157/4/5
f 162/5/5 157/5/5 161/5/5
f 163/6/5 161/6/5 160/6/5
f 163/6/5 160/6/5 159/6/5
f 163/6/5 162/6/5 161/6/5
f 163/4/5 159/4/5 153/4/5
f 164/6/5 162/6/5 163/6/5
f 165/6/5 162/6/5 164/6/5
f 166/4/5 158/4/5 162/4/5
f 166/6/5 162/6/5 165/6/5
f 167/4/5 163/4/5 153/4/5
f 168/6/5 165/6/5 164/6/5
f 169/6/5 165/6/5 168/6/5
f 170/4/5 158/4/5 166/4/5
f 171/4/5 167/4/5 153/4/5
f 171/6/5 170/6/5 169/6/5
f 171/6/5 169/6/5 168/6/5
f 171/6/5 168/6/5 167/6/5
f 172/6/5 170/6/5 171/6/5
f 173/6/5 170/6/5 172/6/5
f 174/4/5 158/4/5 170/4/5
f 174/6/5 170/6/5 173/6/5
f 175/4/5 171/4/5 153/4/5
f 176/5/5 172/5/5 171/5/5
f 176/4/5 171/4/5 175/4/5
f 177/4/5 173/4/5 172/4/5
f 177/5/5 172/5/5 176/5/5
f 178/5/5 174/5/5 173/5/5
f 178/4/5 173/4/5 177/4/5
f 179/4/5 158/4/5 174/4/5
f 179/5/5 174/5/5 178/5/5
f 180/4/5 158/4/5 179/4/5
f 185/3/5 182/3/5 181/3/5
f 186/3/5 182/3/5 185/3/5
f 187/3/5 184/3/5 183/3/5
f 188/3/5 184/3/5 187/3/5
f 191/3/5 190/3/5 189/3/5
f 192/3/5 190/3/5 191/3/5
f 193/3/6 194/3/6 197/3/6
f 197/3/6 194/3/6 198/3/6
f 195/3/6 196/3/6 199/3/6
f 199/3/6 196/3/6 200/3/6
f 201/3/6 202/3/6 205/3/6
f 205/3/6 202/3/6 206/3/6
f 203/3/6 204/3/6 207/3/6
f 207/3/6 204/3/6 208/3/6
f 209/3/6 210/3/6 211/3/6
f 211/3/6 210/3/6 212/3/6
f 213/3/6 214/3/6 215/3/6
f 215/3/6 214/3/6 216/3/6
f 213/3/6 215/3/6 217/3/6
f 215/1/6 216/1/6 217/1/6
f 216/3/6 214/3/6 218/3/6
f 217/1/6 216/1/6 218/1/6
f 213/3/6 217/3/6 219/3/6
f 217/3/6 218/3/6 219/3/6
f 218/3/6 214/3/6 220/3/6
f 219/3/6 218/3/6 220/3/6
