# MagicaVoxel @ Ephtracy

# group
g ama002-0

# material
mtllib ama002-0.mtl
usemtl palette

# normals
vn -1 0 0
vn 1 0 0
vn 0 0 1
vn 0 0 -1
vn 0 -1 0
vn 0 1 0

# texcoords
vt 0.0332031 0.5
vt 0.275391 0.5
vt 0.521484 0.5
vt 0.556641 0.5
vt 0.611328 0.5
vt 0.634766 0.5
vt 0.966797 0.5
vt 0.994141 0.5

# verts
v -4 4 1.5
v -4 4 -0.5
v -4 5 1.5
v -4 5 0.5
v -4 6 0.5
v -4 6 -0.5
v -4 8 3.5
v -4 8 0.5
v -4 8 -0.5
v -4 8 -1.5
v -4 9 3.5
v -4 9 1.5
v -4 9 0.5
v -4 9 -1.5
v -4 9 -2.5
v -4 10 3.5
v -4 10 1.5
v -4 10 0.5
v -4 10 -0.5
v -4 10 -2.5
v -4 10 -3.5
v -4 11 -2.5
v -4 11 -3.5
v -4 12 3.5
v -4 12 -2.5
v -3 1 2.5
v -3 1 -2.5
v -3 4 1.5
v -3 4 -0.5
v -3 5 1.5
v -3 5 0.5
v -3 6 0.5
v -3 6 -0.5
v -3 7 3.5
v -3 7 2.5
v -3 7 -2.5
v -3 8 3.5
v -3 8 2.5
v -3 8 0.5
v -3 8 -0.5
v -3 8 -1.5
v -3 9 3.5
v -3 9 2.5
v -3 9 1.5
v -3 9 0.5
v -3 9 -1.5
v -3 9 -2.5
v -3 9 -3.5
v -3 10 3.5
v -3 10 2.5
v -3 10 1.5
v -3 10 0.5
v -3 10 -0.5
v -3 10 -2.5
v -3 10 -3.5
v -3 11 -2.5
v -3 11 -3.5
v -3 12 2.5
v -3 12 -2.5
v -3 12 -3.5
v -3 13 2.5
v -3 13 -2.5
v -2 0 0.5
v -2 0 -0.5
v -2 1 0.5
v -2 1 -0.5
v -2 8 -2.5
v -2 8 -3.5
v -2 9 -2.5
v -2 9 -3.5
v -2 10 3.5
v -2 10 2.5
v -2 11 3.5
v -2 11 2.5
v -2 13 1.5
v -2 13 -1.5
v -2 14 1.5
v -2 14 -1.5
v -1 7 -2.5
v -1 7 -3.5
v -1 8 3.5
v -1 8 2.5
v -1 8 -2.5
v -1 8 -3.5
v -1 9 3.5
v -1 9 2.5
v 1 0 0.5
v 1 0 -0.5
v 1 1 0.5
v 1 1 -0.5
v 1 7 3.5
v 1 7 2.5
v 1 8 3.5
v 1 8 2.5
v 1 9 3.5
v 1 9 2.5
v 1 10 3.5
v 1 10 2.5
v 2 8 3.5
v 2 8 2.5
v 2 9 3.5
v 2 9 2.5
v 3 10 3.5
v 3 10 2.5
v 3 11 3.5
v 3 11 2.5
v -3 10 3.5
v -3 10 2.5
v -3 11 3.5
v -3 11 2.5
v -2 8 3.5
v -2 8 2.5
v -2 9 3.5
v -2 9 2.5
v -1 0 0.5
v -1 0 -0.5
v -1 1 0.5
v -1 1 -0.5
v -1 7 3.5
v -1 7 2.5
v -1 8 3.5
v -1 8 2.5
v -1 9 3.5
v -1 9 2.5
v -1 10 3.5
v -1 10 2.5
v 1 7 -2.5
v 1 7 -3.5
v 1 8 3.5
v 1 8 2.5
v 1 8 -2.5
v 1 8 -3.5
v 1 9 3.5
v 1 9 2.5
v 2 0 0.5
v 2 0 -0.5
v 2 1 0.5
v 2 1 -0.5
v 2 8 -2.5
v 2 8 -3.5
v 2 9 -2.5
v 2 9 -3.5
v 2 10 3.5
v 2 10 2.5
v 2 11 3.5
v 2 11 2.5
v 2 13 1.5
v 2 13 -1.5
v 2 14 1.5
v 2 14 -1.5
v 3 1 2.5
v 3 1 -2.5
v 3 4 1.5
v 3 4 -0.5
v 3 5 1.5
v 3 5 0.5
v 3 6 0.5
v 3 6 -0.5
v 3 7 3.5
v 3 7 2.5
v 3 7 -2.5
v 3 8 3.5
v 3 8 2.5
v 3 8 0.5
v 3 8 -0.5
v 3 8 -1.5
v 3 9 3.5
v 3 9 2.5
v 3 9 1.5
v 3 9 0.5
v 3 9 -1.5
v 3 9 -2.5
v 3 9 -3.5
v 3 10 3.5
v 3 10 2.5
v 3 10 1.5
v 3 10 0.5
v 3 10 -0.5
v 3 10 -2.5
v 3 10 -3.5
v 3 11 -2.5
v 3 11 -3.5
v 3 12 2.5
v 3 12 -2.5
v 3 12 -3.5
v 3 13 2.5
v 3 13 -2.5
v 4 4 1.5
v 4 4 -0.5
v 4 5 1.5
v 4 5 0.5
v 4 6 0.5
v 4 6 -0.5
v 4 8 3.5
v 4 8 0.5
v 4 8 -0.5
v 4 8 -1.5
v 4 9 3.5
v 4 9 1.5
v 4 9 0.5
v 4 9 -1.5
v 4 9 -2.5
v 4 10 3.5
v 4 10 1.5
v 4 10 0.5
v 4 10 -0.5
v 4 10 -2.5
v 4 10 -3.5
v 4 11 -2.5
v 4 11 -3.5
v 4 12 3.5
v 4 12 -2.5
v -4 8 3.5
v -4 9 3.5
v -4 10 3.5
v -4 12 3.5
v -3 7 3.5
v -3 8 3.5
v -3 9 3.5
v -3 10 3.5
v -3 11 3.5
v -2 8 3.5
v -2 9 3.5
v -2 10 3.5
v -2 11 3.5
v -1 7 3.5
v -1 8 3.5
v -1 9 3.5
v -1 10 3.5
v 1 7 3.5
v 1 8 3.5
v 1 9 3.5
v 1 10 3.5
v 2 8 3.5
v 2 9 3.5
v 2 10 3.5
v 2 11 3.5
v 3 7 3.5
v 3 8 3.5
v 3 9 3.5
v 3 10 3.5
v 3 11 3.5
v 4 8 3.5
v 4 9 3.5
v 4 10 3.5
v 4 12 3.5
v -3 1 2.5
v -3 7 2.5
v -3 10 2.5
v -3 11 2.5
v -3 12 2.5
v -3 13 2.5
v -2 6 2.5
v -2 7 2.5
v -2 8 2.5
v -2 9 2.5
v -2 10 2.5
v -2 11 2.5
v -1 7 2.5
v -1 8 2.5
v -1 9 2.5
v -1 10 2.5
v 1 7 2.5
v 1 8 2.5
v 1 9 2.5
v 1 10 2.5
v 2 6 2.5
v 2 7 2.5
v 2 8 2.5
v 2 9 2.5
v 2 10 2.5
v 2 11 2.5
v 3 1 2.5
v 3 7 2.5
v 3 10 2.5
v 3 11 2.5
v 3 12 2.5
v 3 13 2.5
v -4 4 1.5
v -4 5 1.5
v -4 9 1.5
v -4 10 1.5
v -3 4 1.5
v -3 5 1.5
v -3 9 1.5
v -3 10 1.5
v -2 13 1.5
v -2 14 1.5
v 2 13 1.5
v 2 14 1.5
v 3 4 1.5
v 3 5 1.5
v 3 9 1.5
v 3 10 1.5
v 4 4 1.5
v 4 5 1.5
v 4 9 1.5
v 4 10 1.5
v -4 5 0.5
v -4 6 0.5
v -3 5 0.5
v -3 6 0.5
v -2 0 0.5
v -2 1 0.5
v -1 0 0.5
v -1 1 0.5
v 1 0 0.5
v 1 1 0.5
v 2 0 0.5
v 2 1 0.5
v 3 5 0.5
v 3 6 0.5
v 4 5 0.5
v 4 6 0.5
v -4 8 -0.5
v -4 10 -0.5
v -3 8 -0.5
v -3 10 -0.5
v 3 8 -0.5
v 3 10 -0.5
v 4 8 -0.5
v 4 10 -0.5
v -4 8 0.5
v -4 9 0.5
v -4 10 0.5
v -3 8 0.5
v -3 9 0.5
v -3 10 0.5
v 3 8 0.5
v 3 9 0.5
v 3 10 0.5
v 4 8 0.5
v 4 9 0.5
v 4 10 0.5
v -4 4 -0.5
v -4 6 -0.5
v -3 4 -0.5
v -3 6 -0.5
v -2 0 -0.5
v -2 1 -0.5
v -1 0 -0.5
v -1 1 -0.5
v 1 0 -0.5
v 1 1 -0.5
v 2 0 -0.5
v 2 1 -0.5
v 3 4 -0.5
v 3 6 -0.5
v 4 4 -0.5
v 4 6 -0.5
v -4 8 -1.5
v -4 9 -1.5
v -3 8 -1.5
v -3 9 -1.5
v -2 13 -1.5
v -2 14 -1.5
v 2 13 -1.5
v 2 14 -1.5
v 3 8 -1.5
v 3 9 -1.5
v 4 8 -1.5
v 4 9 -1.5
v -4 9 -2.5
v -4 10 -2.5
v -4 11 -2.5
v -4 12 -2.5
v -3 1 -2.5
v -3 7 -2.5
v -3 9 -2.5
v -3 10 -2.5
v -3 11 -2.5
v -3 12 -2.5
v -3 13 -2.5
v -2 8 -2.5
v -2 9 -2.5
v -1 7 -2.5
v -1 8 -2.5
v 1 7 -2.5
v 1 8 -2.5
v 2 8 -2.5
v 2 9 -2.5
v 3 1 -2.5
v 3 7 -2.5
v 3 9 -2.5
v 3 10 -2.5
v 3 11 -2.5
v 3 12 -2.5
v 3 13 -2.5
v 4 9 -2.5
v 4 10 -2.5
v 4 11 -2.5
v 4 12 -2.5
v -4 10 -3.5
v -4 11 -3.5
v -3 9 -3.5
v -3 10 -3.5
v -3 11 -3.5
v -3 12 -3.5
v -2 8 -3.5
v -2 9 -3.5
v -1 7 -3.5
v -1 8 -3.5
v 1 7 -3.5
v 1 8 -3.5
v 2 8 -3.5
v 2 9 -3.5
v 3 9 -3.5
v 3 10 -3.5
v 3 11 -3.5
v 3 12 -3.5
v 4 10 -3.5
v 4 11 -3.5
v -2 0 0.5
v -1 0 0.5
v 1 0 0.5
v 2 0 0.5
v -2 0 -0.5
v -1 0 -0.5
v 1 0 -0.5
v 2 0 -0.5
v -3 1 2.5
v 3 1 2.5
v -2 1 0.5
v -1 1 0.5
v 1 1 0.5
v 2 1 0.5
v -2 1 -0.5
v -1 1 -0.5
v 1 1 -0.5
v 2 1 -0.5
v -3 1 -2.5
v 3 1 -2.5
v -4 4 1.5
v -3 4 1.5
v 3 4 1.5
v 4 4 1.5
v -4 4 -0.5
v -3 4 -0.5
v 3 4 -0.5
v 4 4 -0.5
v -3 7 3.5
v -1 7 3.5
v 1 7 3.5
v 3 7 3.5
v -3 7 2.5
v -2 7 2.5
v -1 7 2.5
v 1 7 2.5
v 2 7 2.5
v 3 7 2.5
v -1 7 -2.5
v 1 7 -2.5
v -1 7 -3.5
v 1 7 -3.5
v -4 8 3.5
v -3 8 3.5
v -1 8 3.5
v 1 8 3.5
v 3 8 3.5
v 4 8 3.5
v -3 8 2.5
v -1 8 2.5
v 1 8 2.5
v 3 8 2.5
v -4 8 0.5
v -3 8 0.5
v 3 8 0.5
v 4 8 0.5
v -4 8 -0.5
v -3 8 -0.5
v 3 8 -0.5
v 4 8 -0.5
v -4 8 -1.5
v -3 8 -1.5
v 3 8 -1.5
v 4 8 -1.5
v -2 8 -2.5
v -1 8 -2.5
v 1 8 -2.5
v 2 8 -2.5
v -2 8 -3.5
v -1 8 -3.5
v 1 8 -3.5
v 2 8 -3.5
v -2 9 3.5
v -1 9 3.5
v 1 9 3.5
v 2 9 3.5
v -2 9 2.5
v -1 9 2.5
v 1 9 2.5
v 2 9 2.5
v -4 9 -1.5
v -3 9 -1.5
v 3 9 -1.5
v 4 9 -1.5
v -4 9 -2.5
v -3 9 -2.5
v -2 9 -2.5
v 2 9 -2.5
v 3 9 -2.5
v 4 9 -2.5
v -3 9 -3.5
v -2 9 -3.5
v 2 9 -3.5
v 3 9 -3.5
v -4 10 3.5
v -3 10 3.5
v -1 10 3.5
v 1 10 3.5
v 3 10 3.5
v 4 10 3.5
v -3 10 2.5
v -1 10 2.5
v 1 10 2.5
v 3 10 2.5
v -4 10 1.5
v -3 10 1.5
v 3 10 1.5
v 4 10 1.5
v -4 10 0.5
v -3 10 0.5
v 3 10 0.5
v 4 10 0.5
v -4 10 -0.5
v -3 10 -0.5
v 3 10 -0.5
v 4 10 -0.5
v -4 10 -2.5
v -3 10 -2.5
v 3 10 -2.5
v 4 10 -2.5
v -4 10 -3.5
v -3 10 -3.5
v 3 10 -3.5
v 4 10 -3.5
v -3 11 3.5
v -2 11 3.5
v 2 11 3.5
v 3 11 3.5
v -3 11 2.5
v -2 11 2.5
v 2 11 2.5
v 3 11 2.5
v -4 5 1.5
v -3 5 1.5
v 3 5 1.5
v 4 5 1.5
v -4 5 0.5
v -3 5 0.5
v 3 5 0.5
v 4 5 0.5
v -4 6 0.5
v -3 6 0.5
v 3 6 0.5
v 4 6 0.5
v -4 6 -0.5
v -3 6 -0.5
v 3 6 -0.5
v 4 6 -0.5
v -2 8 3.5
v -1 8 3.5
v 1 8 3.5
v 2 8 3.5
v -2 8 2.5
v -1 8 2.5
v 1 8 2.5
v 2 8 2.5
v -4 9 3.5
v -3 9 3.5
v -1 9 3.5
v 1 9 3.5
v 3 9 3.5
v 4 9 3.5
v -3 9 2.5
v -1 9 2.5
v 1 9 2.5
v 3 9 2.5
v -4 9 1.5
v -3 9 1.5
v 3 9 1.5
v 4 9 1.5
v -3 10 3.5
v -2 10 3.5
v 2 10 3.5
v 3 10 3.5
v -3 10 2.5
v -2 10 2.5
v 2 10 2.5
v 3 10 2.5
v -4 11 -2.5
v -3 11 -2.5
v 3 11 -2.5
v 4 11 -2.5
v -4 11 -3.5
v -3 11 -3.5
v 3 11 -3.5
v 4 11 -3.5
v -4 12 3.5
v 4 12 3.5
v -3 12 2.5
v 3 12 2.5
v -4 12 -2.5
v -3 12 -2.5
v 3 12 -2.5
v 4 12 -2.5
v -3 12 -3.5
v 3 12 -3.5
v -3 13 2.5
v 3 13 2.5
v -2 13 1.5
v 2 13 1.5
v -2 13 -1.5
v 2 13 -1.5
v -3 13 -2.5
v 3 13 -2.5
v -2 14 1.5
v 2 14 1.5
v -2 14 -1.5
v 2 14 -1.5

# faces
f 3/1/1 2/1/1 1/1/1
f 4/1/1 2/1/1 3/1/1
f 5/1/1 2/1/1 4/1/1
f 6/1/1 2/1/1 5/1/1
f 11/2/1 8/2/1 7/2/1
f 12/2/1 8/2/1 11/2/1
f 13/2/1 8/2/1 12/2/1
f 14/7/1 10/7/1 9/7/1
f 17/7/1 13/7/1 12/7/1
f 18/7/1 13/7/1 17/7/1
f 19/7/1 14/7/1 9/7/1
f 19/7/1 15/7/1 14/7/1
f 20/7/1 15/7/1 19/7/1
f 22/7/1 18/7/1 17/7/1
f 22/7/1 21/7/1 20/7/1
f 22/7/1 20/7/1 19/7/1
f 22/7/1 19/7/1 18/7/1
f 22/7/1 17/7/1 16/7/1
f 23/7/1 21/7/1 22/7/1
f 24/7/1 22/7/1 16/7/1
f 25/7/1 22/7/1 24/7/1
f 28/4/1 27/4/1 26/4/1
f 29/4/1 27/4/1 28/4/1
f 30/4/1 28/4/1 26/4/1
f 32/4/1 31/4/1 30/4/1
f 33/4/1 27/4/1 29/4/1
f 35/4/1 32/4/1 30/4/1
f 35/4/1 33/4/1 32/4/1
f 35/4/1 30/4/1 26/4/1
f 36/4/1 27/4/1 33/4/1
f 36/4/1 33/4/1 35/4/1
f 37/2/1 35/2/1 34/2/1
f 38/1/1 36/1/1 35/1/1
f 38/2/1 35/2/1 37/2/1
f 39/1/1 36/1/1 38/1/1
f 40/1/1 36/1/1 39/1/1
f 41/1/1 36/1/1 40/1/1
f 45/1/1 40/1/1 39/1/1
f 46/1/1 36/1/1 41/1/1
f 47/1/1 36/1/1 46/1/1
f 49/2/1 43/2/1 42/2/1
f 50/1/1 44/1/1 43/1/1
f 50/2/1 43/2/1 49/2/1
f 51/1/1 44/1/1 50/1/1
f 52/1/1 40/1/1 45/1/1
f 53/1/1 40/1/1 52/1/1
f 54/7/1 48/7/1 47/7/1
f 55/7/1 48/7/1 54/7/1
f 59/7/1 57/7/1 56/7/1
f 60/7/1 57/7/1 59/7/1
f 61/7/1 59/7/1 58/7/1
f 62/7/1 59/7/1 61/7/1
f 65/4/1 64/4/1 63/4/1
f 66/4/1 64/4/1 65/4/1
f 69/7/1 68/7/1 67/7/1
f 70/7/1 68/7/1 69/7/1
f 73/7/1 72/7/1 71/7/1
f 74/7/1 72/7/1 73/7/1
f 77/7/1 76/7/1 75/7/1
f 78/7/1 76/7/1 77/7/1
f 83/7/1 80/7/1 79/7/1
f 84/7/1 80/7/1 83/7/1
f 85/2/1 82/2/1 81/2/1
f 86/2/1 82/2/1 85/2/1
f 89/4/1 88/4/1 87/4/1
f 90/4/1 88/4/1 89/4/1
f 93/2/1 92/2/1 91/2/1
f 94/2/1 92/2/1 93/2/1
f 97/2/1 96/2/1 95/2/1
f 98/2/1 96/2/1 97/2/1
f 101/2/1 100/2/1 99/2/1
f 102/2/1 100/2/1 101/2/1
f 105/7/1 104/7/1 103/7/1
f 106/7/1 104/7/1 105/7/1
f 107/7/2 108/7/2 109/7/2
f 109/7/2 108/7/2 110/7/2
f 111/2/2 112/2/2 113/2/2
f 113/2/2 112/2/2 114/2/2
f 115/4/2 116/4/2 117/4/2
f 117/4/2 116/4/2 118/4/2
f 119/2/2 120/2/2 121/2/2
f 121/2/2 120/2/2 122/2/2
f 123/2/2 124/2/2 125/2/2
f 125/2/2 124/2/2 126/2/2
f 127/7/2 128/7/2 131/7/2
f 131/7/2 128/7/2 132/7/2
f 129/2/2 130/2/2 133/2/2
f 133/2/2 130/2/2 134/2/2
f 135/4/2 136/4/2 137/4/2
f 137/4/2 136/4/2 138/4/2
f 139/7/2 140/7/2 141/7/2
f 141/7/2 140/7/2 142/7/2
f 143/7/2 144/7/2 145/7/2
f 145/7/2 144/7/2 146/7/2
f 147/7/2 148/7/2 149/7/2
f 149/7/2 148/7/2 150/7/2
f 151/4/2 152/4/2 153/4/2
f 153/4/2 152/4/2 154/4/2
f 151/4/2 153/4/2 155/4/2
f 155/4/2 156/4/2 157/4/2
f 154/4/2 152/4/2 158/4/2
f 155/4/2 157/4/2 160/4/2
f 157/4/2 158/4/2 160/4/2
f 151/4/2 155/4/2 160/4/2
f 158/4/2 152/4/2 161/4/2
f 160/4/2 158/4/2 161/4/2
f 159/2/2 160/2/2 162/2/2
f 160/1/2 161/1/2 163/1/2
f 162/2/2 160/2/2 163/2/2
f 163/1/2 161/1/2 164/1/2
f 164/1/2 161/1/2 165/1/2
f 165/1/2 161/1/2 166/1/2
f 164/1/2 165/1/2 170/1/2
f 166/1/2 161/1/2 171/1/2
f 171/1/2 161/1/2 172/1/2
f 167/2/2 168/2/2 174/2/2
f 168/1/2 169/1/2 175/1/2
f 174/2/2 168/2/2 175/2/2
f 175/1/2 169/1/2 176/1/2
f 170/1/2 165/1/2 177/1/2
f 177/1/2 165/1/2 178/1/2
f 172/7/2 173/7/2 179/7/2
f 179/7/2 173/7/2 180/7/2
f 181/7/2 182/7/2 184/7/2
f 184/7/2 182/7/2 185/7/2
f 183/7/2 184/7/2 186/7/2
f 186/7/2 184/7/2 187/7/2
f 188/1/2 189/1/2 190/1/2
f 190/1/2 189/1/2 191/1/2
f 191/1/2 189/1/2 192/1/2
f 192/1/2 189/1/2 193/1/2
f 194/2/2 195/2/2 198/2/2
f 198/2/2 195/2/2 199/2/2
f 199/2/2 195/2/2 200/2/2
f 196/7/2 197/7/2 201/7/2
f 199/7/2 200/7/2 204/7/2
f 204/7/2 200/7/2 205/7/2
f 196/7/2 201/7/2 206/7/2
f 201/7/2 202/7/2 206/7/2
f 206/7/2 202/7/2 207/7/2
f 204/7/2 205/7/2 209/7/2
f 207/7/2 208/7/2 209/7/2
f 206/7/2 207/7/2 209/7/2
f 205/7/2 206/7/2 209/7/2
f 203/7/2 204/7/2 209/7/2
f 209/7/2 208/7/2 210/7/2
f 203/7/2 209/7/2 211/7/2
f 211/7/2 209/7/2 212/7/2
f 218/2/3 214/2/3 213/2/3
f 219/2/3 214/2/3 218/2/3
f 220/7/3 216/7/3 215/7/3
f 221/7/3 216/7/3 220/7/3
f 222/2/3 219/2/3 218/2/3
f 222/2/3 218/2/3 217/2/3
f 222/2/3 220/2/3 219/2/3
f 223/2/3 220/2/3 222/2/3
f 224/2/3 220/2/3 223/2/3
f 225/7/3 216/7/3 221/7/3
f 226/2/3 222/2/3 217/2/3
f 227/2/3 222/2/3 226/2/3
f 228/2/3 224/2/3 223/2/3
f 229/7/3 225/7/3 224/7/3
f 229/2/3 224/2/3 228/2/3
f 231/2/3 228/2/3 227/2/3
f 232/2/3 228/2/3 231/2/3
f 233/7/3 225/7/3 229/7/3
f 234/2/3 231/2/3 230/2/3
f 235/2/3 233/2/3 232/2/3
f 236/7/3 225/7/3 233/7/3
f 236/2/3 233/2/3 235/2/3
f 237/7/3 216/7/3 225/7/3
f 237/7/3 225/7/3 236/7/3
f 238/2/3 234/2/3 230/2/3
f 238/2/3 236/2/3 235/2/3
f 238/2/3 235/2/3 234/2/3
f 239/2/3 236/2/3 238/2/3
f 240/2/3 236/2/3 239/2/3
f 241/2/3 236/2/3 240/2/3
f 242/7/3 216/7/3 237/7/3
f 243/2/3 240/2/3 239/2/3
f 244/2/3 240/2/3 243/2/3
f 245/7/3 242/7/3 241/7/3
f 246/7/3 216/7/3 242/7/3
f 246/7/3 242/7/3 245/7/3
f 253/4/3 248/4/3 247/4/3
f 254/4/3 248/4/3 253/4/3
f 257/1/3 250/1/3 249/1/3
f 258/1/3 250/1/3 257/1/3
f 259/1/3 254/1/3 253/1/3
f 260/8/3 256/8/3 255/8/3
f 261/8/3 256/8/3 260/8/3
f 263/1/3 259/1/3 253/1/3
f 263/1/3 260/1/3 259/1/3
f 264/1/3 260/1/3 263/1/3
f 265/1/3 262/1/3 261/1/3
f 266/1/3 262/1/3 265/1/3
f 267/4/3 253/4/3 247/4/3
f 267/1/3 263/1/3 253/1/3
f 268/1/3 263/1/3 267/1/3
f 269/8/3 265/8/3 264/8/3
f 270/8/3 265/8/3 269/8/3
f 273/4/3 268/4/3 267/4/3
f 273/4/3 267/4/3 247/4/3
f 274/4/3 268/4/3 273/4/3
f 275/1/3 272/1/3 271/1/3
f 276/1/3 272/1/3 275/1/3
f 277/7/3 252/7/3 251/7/3
f 278/7/3 252/7/3 277/7/3
f 283/1/3 280/1/3 279/1/3
f 284/1/3 280/1/3 283/1/3
f 285/7/3 282/7/3 281/7/3
f 286/7/3 282/7/3 285/7/3
f 289/7/3 288/7/3 287/7/3
f 290/7/3 288/7/3 289/7/3
f 295/1/3 292/1/3 291/1/3
f 296/1/3 292/1/3 295/1/3
f 297/7/3 294/7/3 293/7/3
f 298/7/3 294/7/3 297/7/3
f 301/1/3 300/1/3 299/1/3
f 302/1/3 300/1/3 301/1/3
f 305/4/3 304/4/3 303/4/3
f 306/4/3 304/4/3 305/4/3
f 309/4/3 308/4/3 307/4/3
f 310/4/3 308/4/3 309/4/3
f 313/1/3 312/1/3 311/1/3
f 314/1/3 312/1/3 313/1/3
f 317/7/3 316/7/3 315/7/3
f 318/7/3 316/7/3 317/7/3
f 321/7/3 320/7/3 319/7/3
f 322/7/3 320/7/3 321/7/3
f 323/2/4 324/2/4 326/2/4
f 324/7/4 325/7/4 327/7/4
f 326/2/4 324/2/4 327/2/4
f 327/7/4 325/7/4 328/7/4
f 329/2/4 330/2/4 332/2/4
f 330/7/4 331/7/4 333/7/4
f 332/2/4 330/2/4 333/2/4
f 333/7/4 331/7/4 334/7/4
f 335/1/4 336/1/4 337/1/4
f 337/1/4 336/1/4 338/1/4
f 339/4/4 340/4/4 341/4/4
f 341/4/4 340/4/4 342/4/4
f 343/4/4 344/4/4 345/4/4
f 345/4/4 344/4/4 346/4/4
f 347/1/4 348/1/4 349/1/4
f 349/1/4 348/1/4 350/1/4
f 351/7/4 352/7/4 353/7/4
f 353/7/4 352/7/4 354/7/4
f 355/7/4 356/7/4 357/7/4
f 357/7/4 356/7/4 358/7/4
f 359/7/4 360/7/4 361/7/4
f 361/7/4 360/7/4 362/7/4
f 363/7/4 364/7/4 369/7/4
f 369/7/4 364/7/4 370/7/4
f 365/7/4 366/7/4 371/7/4
f 371/7/4 366/7/4 372/7/4
f 368/1/4 369/1/4 374/1/4
f 374/1/4 369/1/4 375/1/4
f 367/4/4 368/4/4 376/4/4
f 368/1/4 374/1/4 376/1/4
f 376/1/4 374/1/4 377/1/4
f 367/4/4 376/4/4 378/4/4
f 378/1/4 379/1/4 380/1/4
f 367/4/4 378/4/4 382/4/4
f 378/1/4 380/1/4 383/1/4
f 382/4/4 378/4/4 383/4/4
f 380/1/4 381/1/4 383/1/4
f 383/1/4 381/1/4 384/1/4
f 372/7/4 373/7/4 387/7/4
f 387/7/4 373/7/4 388/7/4
f 384/7/4 385/7/4 389/7/4
f 389/7/4 385/7/4 390/7/4
f 386/7/4 387/7/4 391/7/4
f 391/7/4 387/7/4 392/7/4
f 393/7/4 394/7/4 396/7/4
f 396/7/4 394/7/4 397/7/4
f 395/7/4 396/7/4 400/7/4
f 397/7/4 398/7/4 400/7/4
f 396/7/4 397/7/4 400/7/4
f 399/7/4 400/7/4 402/7/4
f 401/7/4 402/7/4 403/7/4
f 402/7/4 400/7/4 404/7/4
f 403/7/4 402/7/4 404/7/4
f 404/7/4 400/7/4 405/7/4
f 400/7/4 398/7/4 406/7/4
f 405/7/4 400/7/4 406/7/4
f 406/7/4 398/7/4 407/7/4
f 407/7/4 398/7/4 408/7/4
f 408/7/4 398/7/4 409/7/4
f 409/7/4 398/7/4 410/7/4
f 408/7/4 409/7/4 411/7/4
f 411/7/4 409/7/4 412/7/4
f 417/4/5 414/4/5 413/4/5
f 418/4/5 414/4/5 417/4/5
f 419/4/5 416/4/5 415/4/5
f 420/4/5 416/4/5 419/4/5
f 423/4/5 422/4/5 421/4/5
f 424/4/5 422/4/5 423/4/5
f 425/4/5 422/4/5 424/4/5
f 426/4/5 422/4/5 425/4/5
f 427/4/5 423/4/5 421/4/5
f 428/4/5 425/4/5 424/4/5
f 429/4/5 425/4/5 428/4/5
f 430/4/5 422/4/5 426/4/5
f 431/4/5 429/4/5 428/4/5
f 431/4/5 430/4/5 429/4/5
f 431/4/5 427/4/5 421/4/5
f 431/4/5 428/4/5 427/4/5
f 432/4/5 422/4/5 430/4/5
f 432/4/5 430/4/5 431/4/5
f 437/1/5 434/1/5 433/1/5
f 438/1/5 434/1/5 437/1/5
f 439/1/5 436/1/5 435/1/5
f 440/1/5 436/1/5 439/1/5
f 445/2/5 442/2/5 441/2/5
f 446/2/5 442/2/5 445/2/5
f 447/2/5 442/2/5 446/2/5
f 448/2/5 444/2/5 443/2/5
f 449/2/5 444/2/5 448/2/5
f 450/2/5 444/2/5 449/2/5
f 453/7/5 452/7/5 451/7/5
f 454/7/5 452/7/5 453/7/5
f 461/2/5 456/2/5 455/2/5
f 462/2/5 458/2/5 457/2/5
f 463/2/5 458/2/5 462/2/5
f 464/2/5 460/2/5 459/2/5
f 465/2/5 461/2/5 455/2/5
f 466/2/5 461/2/5 465/2/5
f 467/2/5 460/2/5 464/2/5
f 468/2/5 460/2/5 467/2/5
f 473/7/5 470/7/5 469/7/5
f 474/7/5 470/7/5 473/7/5
f 475/7/5 472/7/5 471/7/5
f 476/7/5 472/7/5 475/7/5
f 481/7/5 478/7/5 477/7/5
f 482/7/5 478/7/5 481/7/5
f 483/7/5 480/7/5 479/7/5
f 484/7/5 480/7/5 483/7/5
f 489/2/5 486/2/5 485/2/5
f 490/2/5 486/2/5 489/2/5
f 491/2/5 488/2/5 487/2/5
f 492/2/5 488/2/5 491/2/5
f 497/7/5 494/7/5 493/7/5
f 498/7/5 494/7/5 497/7/5
f 501/7/5 496/7/5 495/7/5
f 502/7/5 496/7/5 501/7/5
f 503/7/5 499/7/5 498/7/5
f 504/7/5 499/7/5 503/7/5
f 505/7/5 501/7/5 500/7/5
f 506/7/5 501/7/5 505/7/5
f 513/7/5 508/7/5 507/7/5
f 514/7/5 510/7/5 509/7/5
f 515/7/5 510/7/5 514/7/5
f 516/7/5 512/7/5 511/7/5
f 517/7/5 513/7/5 507/7/5
f 518/7/5 513/7/5 517/7/5
f 519/7/5 512/7/5 516/7/5
f 520/7/5 512/7/5 519/7/5
f 525/7/5 522/7/5 521/7/5
f 526/7/5 522/7/5 525/7/5
f 527/7/5 524/7/5 523/7/5
f 528/7/5 524/7/5 527/7/5
f 533/7/5 530/7/5 529/7/5
f 534/7/5 530/7/5 533/7/5
f 535/7/5 532/7/5 531/7/5
f 536/7/5 532/7/5 535/7/5
f 541/7/5 538/7/5 537/7/5
f 542/7/5 538/7/5 541/7/5
f 543/7/5 540/7/5 539/7/5
f 544/7/5 540/7/5 543/7/5
f 545/1/6 546/1/6 549/1/6
f 549/1/6 546/1/6 550/1/6
f 547/1/6 548/1/6 551/1/6
f 551/1/6 548/1/6 552/1/6
f 553/1/6 554/1/6 557/1/6
f 557/1/6 554/1/6 558/1/6
f 555/1/6 556/1/6 559/1/6
f 559/1/6 556/1/6 560/1/6
f 561/2/6 562/2/6 565/2/6
f 565/2/6 562/2/6 566/2/6
f 563/2/6 564/2/6 567/2/6
f 567/2/6 564/2/6 568/2/6
f 569/2/6 570/2/6 575/2/6
f 571/2/6 572/2/6 576/2/6
f 576/2/6 572/2/6 577/2/6
f 573/2/6 574/2/6 578/2/6
f 569/2/6 575/2/6 579/2/6
f 579/2/6 575/2/6 580/2/6
f 578/2/6 574/2/6 581/2/6
f 581/2/6 574/2/6 582/2/6
f 583/2/6 584/2/6 587/2/6
f 587/2/6 584/2/6 588/2/6
f 585/2/6 586/2/6 589/2/6
f 589/2/6 586/2/6 590/2/6
f 591/7/6 592/7/6 595/7/6
f 595/7/6 592/7/6 596/7/6
f 593/7/6 594/7/6 597/7/6
f 597/7/6 594/7/6 598/7/6
f 599/7/6 600/7/6 601/7/6
f 601/7/6 600/7/6 602/7/6
f 599/7/6 601/7/6 603/7/6
f 603/7/6 601/7/6 604/7/6
f 602/7/6 600/7/6 605/7/6
f 605/7/6 600/7/6 606/7/6
f 604/7/6 605/7/6 607/7/6
f 607/7/6 605/7/6 608/7/6
f 609/7/6 610/7/6 611/7/6
f 611/7/6 610/7/6 612/7/6
f 609/7/6 611/7/6 613/7/6
f 612/7/6 610/7/6 614/7/6
f 609/7/6 613/7/6 615/7/6
f 613/7/6 614/7/6 615/7/6
f 614/7/6 610/7/6 616/7/6
f 615/7/6 614/7/6 616/7/6
f 617/7/6 618/7/6 619/7/6
f 619/7/6 618/7/6 620/7/6
