# MagicaVoxel @ Ephtracy

# group
g ama003-0

# material
mtllib ama003-0.mtl
usemtl palette

# normals
vn -1 0 0
vn 1 0 0
vn 0 0 1
vn 0 0 -1
vn 0 -1 0
vn 0 1 0

# texcoords
vt 0.0332031 0.5
vt 0.275391 0.5
vt 0.521484 0.5
vt 0.541016 0.5
vt 0.556641 0.5
vt 0.611328 0.5
vt 0.634766 0.5
vt 0.966797 0.5
vt 0.994141 0.5

# verts
v -4 4 1.5
v -4 4 -0.5
v -4 5 1.5
v -4 5 0.5
v -4 6 2.5
v -4 6 0.5
v -4 6 -0.5
v -4 6 -2.5
v -4 7 2.5
v -4 7 -2.5
v -4 8 3.5
v -4 8 0.5
v -4 8 -0.5
v -4 8 -1.5
v -4 9 3.5
v -4 9 1.5
v -4 9 0.5
v -4 9 -1.5
v -4 9 -2.5
v -4 10 3.5
v -4 10 1.5
v -4 10 0.5
v -4 10 -0.5
v -4 10 -2.5
v -4 10 -3.5
v -4 11 -2.5
v -4 11 -3.5
v -4 12 3.5
v -4 12 -2.5
v -3 1 2.5
v -3 1 -2.5
v -3 4 1.5
v -3 4 -0.5
v -3 5 3.5
v -3 5 2.5
v -3 5 1.5
v -3 5 0.5
v -3 6 3.5
v -3 6 2.5
v -3 6 0.5
v -3 6 -0.5
v -3 6 -2.5
v -3 6 -3.5
v -3 7 3.5
v -3 7 2.5
v -3 7 -2.5
v -3 7 -3.5
v -3 8 3.5
v -3 8 2.5
v -3 8 0.5
v -3 8 -0.5
v -3 8 -1.5
v -3 9 3.5
v -3 9 2.5
v -3 9 1.5
v -3 9 0.5
v -3 9 -1.5
v -3 9 -2.5
v -3 9 -3.5
v -3 10 3.5
v -3 10 2.5
v -3 10 1.5
v -3 10 0.5
v -3 10 -0.5
v -3 10 -2.5
v -3 10 -3.5
v -3 11 -2.5
v -3 11 -3.5
v -3 12 2.5
v -3 12 -2.5
v -3 12 -3.5
v -3 13 2.5
v -3 13 -2.5
v -2 0 0.5
v -2 0 -0.5
v -2 1 0.5
v -2 1 -0.5
v -2 4 3.5
v -2 4 2.5
v -2 5 3.5
v -2 5 2.5
v -2 8 -2.5
v -2 8 -3.5
v -2 9 -2.5
v -2 9 -3.5
v -2 10 3.5
v -2 10 2.5
v -2 11 3.5
v -2 11 2.5
v -2 13 1.5
v -2 13 -1.5
v -2 14 1.5
v -2 14 -1.5
v -1 3 3.5
v -1 3 2.5
v -1 4 3.5
v -1 4 2.5
v -1 7 -2.5
v -1 7 -3.5
v -1 8 3.5
v -1 8 2.5
v -1 8 -2.5
v -1 8 -3.5
v -1 9 3.5
v -1 9 2.5
v 1 0 0.5
v 1 0 -0.5
v 1 1 0.5
v 1 1 -0.5
v 1 4 3.5
v 1 4 2.5
v 1 5 3.5
v 1 5 2.5
v 1 7 3.5
v 1 7 2.5
v 1 8 3.5
v 1 8 2.5
v 1 9 3.5
v 1 9 2.5
v 1 10 3.5
v 1 10 2.5
v 2 5 3.5
v 2 5 2.5
v 2 6 3.5
v 2 6 2.5
v 2 8 3.5
v 2 8 2.5
v 2 9 3.5
v 2 9 2.5
v 3 10 3.5
v 3 10 2.5
v 3 11 3.5
v 3 11 2.5
v -3 10 3.5
v -3 10 2.5
v -3 11 3.5
v -3 11 2.5
v -2 5 3.5
v -2 5 2.5
v -2 6 3.5
v -2 6 2.5
v -2 8 3.5
v -2 8 2.5
v -2 9 3.5
v -2 9 2.5
v -1 0 0.5
v -1 0 -0.5
v -1 1 0.5
v -1 1 -0.5
v -1 4 3.5
v -1 4 2.5
v -1 5 3.5
v -1 5 2.5
v -1 7 3.5
v -1 7 2.5
v -1 8 3.5
v -1 8 2.5
v -1 9 3.5
v -1 9 2.5
v -1 10 3.5
v -1 10 2.5
v 1 3 3.5
v 1 3 2.5
v 1 4 3.5
v 1 4 2.5
v 1 7 -2.5
v 1 7 -3.5
v 1 8 3.5
v 1 8 2.5
v 1 8 -2.5
v 1 8 -3.5
v 1 9 3.5
v 1 9 2.5
v 2 0 0.5
v 2 0 -0.5
v 2 1 0.5
v 2 1 -0.5
v 2 4 3.5
v 2 4 2.5
v 2 5 3.5
v 2 5 2.5
v 2 8 -2.5
v 2 8 -3.5
v 2 9 -2.5
v 2 9 -3.5
v 2 10 3.5
v 2 10 2.5
v 2 11 3.5
v 2 11 2.5
v 2 13 1.5
v 2 13 -1.5
v 2 14 1.5
v 2 14 -1.5
v 3 1 2.5
v 3 1 -2.5
v 3 4 1.5
v 3 4 -0.5
v 3 5 3.5
v 3 5 2.5
v 3 5 1.5
v 3 5 0.5
v 3 6 3.5
v 3 6 2.5
v 3 6 0.5
v 3 6 -0.5
v 3 6 -2.5
v 3 6 -3.5
v 3 7 3.5
v 3 7 2.5
v 3 7 -2.5
v 3 7 -3.5
v 3 8 3.5
v 3 8 2.5
v 3 8 0.5
v 3 8 -0.5
v 3 8 -1.5
v 3 9 3.5
v 3 9 2.5
v 3 9 1.5
v 3 9 0.5
v 3 9 -1.5
v 3 9 -2.5
v 3 9 -3.5
v 3 10 3.5
v 3 10 2.5
v 3 10 1.5
v 3 10 0.5
v 3 10 -0.5
v 3 10 -2.5
v 3 10 -3.5
v 3 11 -2.5
v 3 11 -3.5
v 3 12 2.5
v 3 12 -2.5
v 3 12 -3.5
v 3 13 2.5
v 3 13 -2.5
v 4 4 1.5
v 4 4 -0.5
v 4 5 1.5
v 4 5 0.5
v 4 6 2.5
v 4 6 0.5
v 4 6 -0.5
v 4 6 -2.5
v 4 7 2.5
v 4 7 -2.5
v 4 8 3.5
v 4 8 0.5
v 4 8 -0.5
v 4 8 -1.5
v 4 9 3.5
v 4 9 1.5
v 4 9 0.5
v 4 9 -1.5
v 4 9 -2.5
v 4 10 3.5
v 4 10 1.5
v 4 10 0.5
v 4 10 -0.5
v 4 10 -2.5
v 4 10 -3.5
v 4 11 -2.5
v 4 11 -3.5
v 4 12 3.5
v 4 12 -2.5
v -4 8 3.5
v -4 9 3.5
v -4 10 3.5
v -4 12 3.5
v -3 5 3.5
v -3 6 3.5
v -3 7 3.5
v -3 8 3.5
v -3 9 3.5
v -3 10 3.5
v -3 11 3.5
v -2 4 3.5
v -2 5 3.5
v -2 6 3.5
v -2 8 3.5
v -2 9 3.5
v -2 10 3.5
v -2 11 3.5
v -1 3 3.5
v -1 4 3.5
v -1 5 3.5
v -1 7 3.5
v -1 8 3.5
v -1 9 3.5
v -1 10 3.5
v 1 3 3.5
v 1 4 3.5
v 1 5 3.5
v 1 7 3.5
v 1 8 3.5
v 1 9 3.5
v 1 10 3.5
v 2 4 3.5
v 2 5 3.5
v 2 6 3.5
v 2 8 3.5
v 2 9 3.5
v 2 10 3.5
v 2 11 3.5
v 3 5 3.5
v 3 6 3.5
v 3 7 3.5
v 3 8 3.5
v 3 9 3.5
v 3 10 3.5
v 3 11 3.5
v 4 8 3.5
v 4 9 3.5
v 4 10 3.5
v 4 12 3.5
v -4 6 2.5
v -4 7 2.5
v -3 1 2.5
v -3 5 2.5
v -3 6 2.5
v -3 7 2.5
v -3 10 2.5
v -3 11 2.5
v -3 12 2.5
v -3 13 2.5
v -2 4 2.5
v -2 5 2.5
v -2 6 2.5
v -2 7 2.5
v -2 8 2.5
v -2 9 2.5
v -2 10 2.5
v -2 11 2.5
v -1 3 2.5
v -1 4 2.5
v -1 5 2.5
v -1 7 2.5
v -1 8 2.5
v -1 9 2.5
v -1 10 2.5
v 1 3 2.5
v 1 4 2.5
v 1 5 2.5
v 1 7 2.5
v 1 8 2.5
v 1 9 2.5
v 1 10 2.5
v 2 4 2.5
v 2 5 2.5
v 2 6 2.5
v 2 7 2.5
v 2 8 2.5
v 2 9 2.5
v 2 10 2.5
v 2 11 2.5
v 3 1 2.5
v 3 5 2.5
v 3 6 2.5
v 3 7 2.5
v 3 10 2.5
v 3 11 2.5
v 3 12 2.5
v 3 13 2.5
v 4 6 2.5
v 4 7 2.5
v -4 4 1.5
v -4 5 1.5
v -4 9 1.5
v -4 10 1.5
v -3 4 1.5
v -3 5 1.5
v -3 9 1.5
v -3 10 1.5
v -2 13 1.5
v -2 14 1.5
v 2 13 1.5
v 2 14 1.5
v 3 4 1.5
v 3 5 1.5
v 3 9 1.5
v 3 10 1.5
v 4 4 1.5
v 4 5 1.5
v 4 9 1.5
v 4 10 1.5
v -4 5 0.5
v -4 6 0.5
v -3 5 0.5
v -3 6 0.5
v -2 0 0.5
v -2 1 0.5
v -1 0 0.5
v -1 1 0.5
v 1 0 0.5
v 1 1 0.5
v 2 0 0.5
v 2 1 0.5
v 3 5 0.5
v 3 6 0.5
v 4 5 0.5
v 4 6 0.5
v -4 8 -0.5
v -4 10 -0.5
v -3 8 -0.5
v -3 10 -0.5
v 3 8 -0.5
v 3 10 -0.5
v 4 8 -0.5
v 4 10 -0.5
v -4 8 0.5
v -4 9 0.5
v -4 10 0.5
v -3 8 0.5
v -3 9 0.5
v -3 10 0.5
v 3 8 0.5
v 3 9 0.5
v 3 10 0.5
v 4 8 0.5
v 4 9 0.5
v 4 10 0.5
v -4 4 -0.5
v -4 6 -0.5
v -3 4 -0.5
v -3 6 -0.5
v -2 0 -0.5
v -2 1 -0.5
v -1 0 -0.5
v -1 1 -0.5
v 1 0 -0.5
v 1 1 -0.5
v 2 0 -0.5
v 2 1 -0.5
v 3 4 -0.5
v 3 6 -0.5
v 4 4 -0.5
v 4 6 -0.5
v -4 8 -1.5
v -4 9 -1.5
v -3 8 -1.5
v -3 9 -1.5
v -2 13 -1.5
v -2 14 -1.5
v 2 13 -1.5
v 2 14 -1.5
v 3 8 -1.5
v 3 9 -1.5
v 4 8 -1.5
v 4 9 -1.5
v -4 6 -2.5
v -4 7 -2.5
v -4 9 -2.5
v -4 10 -2.5
v -4 11 -2.5
v -4 12 -2.5
v -3 1 -2.5
v -3 6 -2.5
v -3 7 -2.5
v -3 9 -2.5
v -3 10 -2.5
v -3 11 -2.5
v -3 12 -2.5
v -3 13 -2.5
v -2 8 -2.5
v -2 9 -2.5
v -1 7 -2.5
v -1 8 -2.5
v 1 7 -2.5
v 1 8 -2.5
v 2 8 -2.5
v 2 9 -2.5
v 3 1 -2.5
v 3 6 -2.5
v 3 7 -2.5
v 3 9 -2.5
v 3 10 -2.5
v 3 11 -2.5
v 3 12 -2.5
v 3 13 -2.5
v 4 6 -2.5
v 4 7 -2.5
v 4 9 -2.5
v 4 10 -2.5
v 4 11 -2.5
v 4 12 -2.5
v -4 10 -3.5
v -4 11 -3.5
v -3 6 -3.5
v -3 7 -3.5
v -3 9 -3.5
v -3 10 -3.5
v -3 11 -3.5
v -3 12 -3.5
v -2 8 -3.5
v -2 9 -3.5
v -1 7 -3.5
v -1 8 -3.5
v 1 7 -3.5
v 1 8 -3.5
v 2 8 -3.5
v 2 9 -3.5
v 3 6 -3.5
v 3 7 -3.5
v 3 9 -3.5
v 3 10 -3.5
v 3 11 -3.5
v 3 12 -3.5
v 4 10 -3.5
v 4 11 -3.5
v -2 0 0.5
v -1 0 0.5
v 1 0 0.5
v 2 0 0.5
v -2 0 -0.5
v -1 0 -0.5
v 1 0 -0.5
v 2 0 -0.5
v -3 1 2.5
v 3 1 2.5
v -2 1 0.5
v -1 1 0.5
v 1 1 0.5
v 2 1 0.5
v -2 1 -0.5
v -1 1 -0.5
v 1 1 -0.5
v 2 1 -0.5
v -3 1 -2.5
v 3 1 -2.5
v -1 3 3.5
v 1 3 3.5
v -1 3 2.5
v 1 3 2.5
v -2 4 3.5
v -1 4 3.5
v 1 4 3.5
v 2 4 3.5
v -2 4 2.5
v -1 4 2.5
v 1 4 2.5
v 2 4 2.5
v -4 4 1.5
v -3 4 1.5
v 3 4 1.5
v 4 4 1.5
v -4 4 -0.5
v -3 4 -0.5
v 3 4 -0.5
v 4 4 -0.5
v -3 5 3.5
v -2 5 3.5
v 2 5 3.5
v 3 5 3.5
v -3 5 2.5
v -2 5 2.5
v 2 5 2.5
v 3 5 2.5
v -4 6 2.5
v -3 6 2.5
v 3 6 2.5
v 4 6 2.5
v -4 6 0.5
v -3 6 0.5
v 3 6 0.5
v 4 6 0.5
v -4 6 -0.5
v -3 6 -0.5
v 3 6 -0.5
v 4 6 -0.5
v -4 6 -2.5
v -3 6 -2.5
v 3 6 -2.5
v 4 6 -2.5
v -3 6 -3.5
v 3 6 -3.5
v -3 7 3.5
v -1 7 3.5
v 1 7 3.5
v 3 7 3.5
v -3 7 2.5
v -2 7 2.5
v -1 7 2.5
v 1 7 2.5
v 2 7 2.5
v 3 7 2.5
v -4 8 3.5
v -3 8 3.5
v -1 8 3.5
v 1 8 3.5
v 3 8 3.5
v 4 8 3.5
v -3 8 2.5
v -1 8 2.5
v 1 8 2.5
v 3 8 2.5
v -4 8 0.5
v -3 8 0.5
v 3 8 0.5
v 4 8 0.5
v -4 8 -0.5
v -3 8 -0.5
v 3 8 -0.5
v 4 8 -0.5
v -4 8 -1.5
v -3 8 -1.5
v 3 8 -1.5
v 4 8 -1.5
v -2 8 -2.5
v -1 8 -2.5
v 1 8 -2.5
v 2 8 -2.5
v -2 8 -3.5
v -1 8 -3.5
v 1 8 -3.5
v 2 8 -3.5
v -2 9 3.5
v -1 9 3.5
v 1 9 3.5
v 2 9 3.5
v -2 9 2.5
v -1 9 2.5
v 1 9 2.5
v 2 9 2.5
v -4 9 -1.5
v -3 9 -1.5
v 3 9 -1.5
v 4 9 -1.5
v -4 9 -2.5
v -3 9 -2.5
v -2 9 -2.5
v 2 9 -2.5
v 3 9 -2.5
v 4 9 -2.5
v -3 9 -3.5
v -2 9 -3.5
v 2 9 -3.5
v 3 9 -3.5
v -4 10 3.5
v -3 10 3.5
v -1 10 3.5
v 1 10 3.5
v 3 10 3.5
v 4 10 3.5
v -3 10 2.5
v -1 10 2.5
v 1 10 2.5
v 3 10 2.5
v -4 10 1.5
v -3 10 1.5
v 3 10 1.5
v 4 10 1.5
v -4 10 0.5
v -3 10 0.5
v 3 10 0.5
v 4 10 0.5
v -4 10 -0.5
v -3 10 -0.5
v 3 10 -0.5
v 4 10 -0.5
v -4 10 -2.5
v -3 10 -2.5
v 3 10 -2.5
v 4 10 -2.5
v -4 10 -3.5
v -3 10 -3.5
v 3 10 -3.5
v 4 10 -3.5
v -3 11 3.5
v -2 11 3.5
v 2 11 3.5
v 3 11 3.5
v -3 11 2.5
v -2 11 2.5
v 2 11 2.5
v 3 11 2.5
v -1 4 3.5
v 1 4 3.5
v -1 4 2.5
v 1 4 2.5
v -2 5 3.5
v -1 5 3.5
v 1 5 3.5
v 2 5 3.5
v -2 5 2.5
v -1 5 2.5
v 1 5 2.5
v 2 5 2.5
v -4 5 1.5
v -3 5 1.5
v 3 5 1.5
v 4 5 1.5
v -4 5 0.5
v -3 5 0.5
v 3 5 0.5
v 4 5 0.5
v -3 6 3.5
v -2 6 3.5
v 2 6 3.5
v 3 6 3.5
v -3 6 2.5
v -2 6 2.5
v 2 6 2.5
v 3 6 2.5
v -4 7 2.5
v -3 7 2.5
v 3 7 2.5
v 4 7 2.5
v -4 7 -2.5
v -3 7 -2.5
v -1 7 -2.5
v 1 7 -2.5
v 3 7 -2.5
v 4 7 -2.5
v -3 7 -3.5
v -1 7 -3.5
v 1 7 -3.5
v 3 7 -3.5
v -2 8 3.5
v -1 8 3.5
v 1 8 3.5
v 2 8 3.5
v -2 8 2.5
v -1 8 2.5
v 1 8 2.5
v 2 8 2.5
v -4 9 3.5
v -3 9 3.5
v -1 9 3.5
v 1 9 3.5
v 3 9 3.5
v 4 9 3.5
v -3 9 2.5
v -1 9 2.5
v 1 9 2.5
v 3 9 2.5
v -4 9 1.5
v -3 9 1.5
v 3 9 1.5
v 4 9 1.5
v -3 10 3.5
v -2 10 3.5
v 2 10 3.5
v 3 10 3.5
v -3 10 2.5
v -2 10 2.5
v 2 10 2.5
v 3 10 2.5
v -4 11 -2.5
v -3 11 -2.5
v 3 11 -2.5
v 4 11 -2.5
v -4 11 -3.5
v -3 11 -3.5
v 3 11 -3.5
v 4 11 -3.5
v -4 12 3.5
v 4 12 3.5
v -3 12 2.5
v 3 12 2.5
v -4 12 -2.5
v -3 12 -2.5
v 3 12 -2.5
v 4 12 -2.5
v -3 12 -3.5
v 3 12 -3.5
v -3 13 2.5
v 3 13 2.5
v -2 13 1.5
v 2 13 1.5
v -2 13 -1.5
v 2 13 -1.5
v -3 13 -2.5
v 3 13 -2.5
v -2 14 1.5
v 2 14 1.5
v -2 14 -1.5
v 2 14 -1.5

# faces
f 3/1/1 2/1/1 1/1/1
f 4/1/1 2/1/1 3/1/1
f 6/1/1 2/1/1 4/1/1
f 7/1/1 2/1/1 6/1/1
f 9/4/1 6/4/1 5/4/1
f 9/4/1 8/4/1 7/4/1
f 9/4/1 7/4/1 6/4/1
f 10/4/1 8/4/1 9/4/1
f 15/2/1 12/2/1 11/2/1
f 16/2/1 12/2/1 15/2/1
f 17/2/1 12/2/1 16/2/1
f 18/8/1 14/8/1 13/8/1
f 21/8/1 17/8/1 16/8/1
f 22/8/1 17/8/1 21/8/1
f 23/8/1 18/8/1 13/8/1
f 23/8/1 19/8/1 18/8/1
f 24/8/1 19/8/1 23/8/1
f 26/8/1 24/8/1 23/8/1
f 26/8/1 25/8/1 24/8/1
f 26/8/1 23/8/1 22/8/1
f 26/8/1 22/8/1 21/8/1
f 26/8/1 21/8/1 20/8/1
f 27/8/1 25/8/1 26/8/1
f 28/8/1 26/8/1 20/8/1
f 29/8/1 26/8/1 28/8/1
f 32/5/1 31/5/1 30/5/1
f 33/5/1 31/5/1 32/5/1
f 35/5/1 32/5/1 30/5/1
f 36/5/1 32/5/1 35/5/1
f 38/4/1 35/4/1 34/4/1
f 39/5/1 37/5/1 36/5/1
f 39/4/1 35/4/1 38/4/1
f 39/5/1 36/5/1 35/5/1
f 40/5/1 37/5/1 39/5/1
f 41/5/1 31/5/1 33/5/1
f 42/5/1 31/5/1 41/5/1
f 46/4/1 43/4/1 42/4/1
f 47/4/1 43/4/1 46/4/1
f 48/2/1 45/2/1 44/2/1
f 49/1/1 46/1/1 45/1/1
f 49/2/1 45/2/1 48/2/1
f 50/1/1 46/1/1 49/1/1
f 51/1/1 46/1/1 50/1/1
f 52/1/1 46/1/1 51/1/1
f 56/1/1 51/1/1 50/1/1
f 57/1/1 46/1/1 52/1/1
f 58/1/1 46/1/1 57/1/1
f 60/2/1 54/2/1 53/2/1
f 61/1/1 55/1/1 54/1/1
f 61/2/1 54/2/1 60/2/1
f 62/1/1 55/1/1 61/1/1
f 63/1/1 51/1/1 56/1/1
f 64/1/1 51/1/1 63/1/1
f 65/8/1 59/8/1 58/8/1
f 66/8/1 59/8/1 65/8/1
f 70/8/1 68/8/1 67/8/1
f 71/8/1 68/8/1 70/8/1
f 72/8/1 70/8/1 69/8/1
f 73/8/1 70/8/1 72/8/1
f 76/5/1 75/5/1 74/5/1
f 77/5/1 75/5/1 76/5/1
f 80/4/1 79/4/1 78/4/1
f 81/4/1 79/4/1 80/4/1
f 84/8/1 83/8/1 82/8/1
f 85/8/1 83/8/1 84/8/1
f 88/8/1 87/8/1 86/8/1
f 89/8/1 87/8/1 88/8/1
f 92/8/1 91/8/1 90/8/1
f 93/8/1 91/8/1 92/8/1
f 96/4/1 95/4/1 94/4/1
f 97/4/1 95/4/1 96/4/1
f 102/8/1 99/8/1 98/8/1
f 103/8/1 99/8/1 102/8/1
f 104/2/1 101/2/1 100/2/1
f 105/2/1 101/2/1 104/2/1
f 108/5/1 107/5/1 106/5/1
f 109/5/1 107/5/1 108/5/1
f 112/4/1 111/4/1 110/4/1
f 113/4/1 111/4/1 112/4/1
f 116/2/1 115/2/1 114/2/1
f 117/2/1 115/2/1 116/2/1
f 120/2/1 119/2/1 118/2/1
f 121/2/1 119/2/1 120/2/1
f 124/4/1 123/4/1 122/4/1
f 125/4/1 123/4/1 124/4/1
f 128/2/1 127/2/1 126/2/1
f 129/2/1 127/2/1 128/2/1
f 132/8/1 131/8/1 130/8/1
f 133/8/1 131/8/1 132/8/1
f 134/8/2 135/8/2 136/8/2
f 136/8/2 135/8/2 137/8/2
f 138/4/2 139/4/2 140/4/2
f 140/4/2 139/4/2 141/4/2
f 142/2/2 143/2/2 144/2/2
f 144/2/2 143/2/2 145/2/2
f 146/5/2 147/5/2 148/5/2
f 148/5/2 147/5/2 149/5/2
f 150/4/2 151/4/2 152/4/2
f 152/4/2 151/4/2 153/4/2
f 154/2/2 155/2/2 156/2/2
f 156/2/2 155/2/2 157/2/2
f 158/2/2 159/2/2 160/2/2
f 160/2/2 159/2/2 161/2/2
f 162/4/2 163/4/2 164/4/2
f 164/4/2 163/4/2 165/4/2
f 166/8/2 167/8/2 170/8/2
f 170/8/2 167/8/2 171/8/2
f 168/2/2 169/2/2 172/2/2
f 172/2/2 169/2/2 173/2/2
f 174/5/2 175/5/2 176/5/2
f 176/5/2 175/5/2 177/5/2
f 178/4/2 179/4/2 180/4/2
f 180/4/2 179/4/2 181/4/2
f 182/8/2 183/8/2 184/8/2
f 184/8/2 183/8/2 185/8/2
f 186/8/2 187/8/2 188/8/2
f 188/8/2 187/8/2 189/8/2
f 190/8/2 191/8/2 192/8/2
f 192/8/2 191/8/2 193/8/2
f 194/5/2 195/5/2 196/5/2
f 196/5/2 195/5/2 197/5/2
f 194/5/2 196/5/2 199/5/2
f 199/5/2 196/5/2 200/5/2
f 198/4/2 199/4/2 202/4/2
f 200/5/2 201/5/2 203/5/2
f 202/4/2 199/4/2 203/4/2
f 199/5/2 200/5/2 203/5/2
f 203/5/2 201/5/2 204/5/2
f 197/5/2 195/5/2 205/5/2
f 205/5/2 195/5/2 206/5/2
f 206/4/2 207/4/2 210/4/2
f 210/4/2 207/4/2 211/4/2
f 208/2/2 209/2/2 212/2/2
f 209/1/2 210/1/2 213/1/2
f 212/2/2 209/2/2 213/2/2
f 213/1/2 210/1/2 214/1/2
f 214/1/2 210/1/2 215/1/2
f 215/1/2 210/1/2 216/1/2
f 214/1/2 215/1/2 220/1/2
f 216/1/2 210/1/2 221/1/2
f 221/1/2 210/1/2 222/1/2
f 217/2/2 218/2/2 224/2/2
f 218/1/2 219/1/2 225/1/2
f 224/2/2 218/2/2 225/2/2
f 225/1/2 219/1/2 226/1/2
f 220/1/2 215/1/2 227/1/2
f 227/1/2 215/1/2 228/1/2
f 222/8/2 223/8/2 229/8/2
f 229/8/2 223/8/2 230/8/2
f 231/8/2 232/8/2 234/8/2
f 234/8/2 232/8/2 235/8/2
f 233/8/2 234/8/2 236/8/2
f 236/8/2 234/8/2 237/8/2
f 238/1/2 239/1/2 240/1/2
f 240/1/2 239/1/2 241/1/2
f 241/1/2 239/1/2 243/1/2
f 243/1/2 239/1/2 244/1/2
f 242/4/2 243/4/2 246/4/2
f 244/4/2 245/4/2 246/4/2
f 243/4/2 244/4/2 246/4/2
f 246/4/2 245/4/2 247/4/2
f 248/2/2 249/2/2 252/2/2
f 252/2/2 249/2/2 253/2/2
f 253/2/2 249/2/2 254/2/2
f 250/8/2 251/8/2 255/8/2
f 253/8/2 254/8/2 258/8/2
f 258/8/2 254/8/2 259/8/2
f 250/8/2 255/8/2 260/8/2
f 255/8/2 256/8/2 260/8/2
f 260/8/2 256/8/2 261/8/2
f 260/8/2 261/8/2 263/8/2
f 261/8/2 262/8/2 263/8/2
f 259/8/2 260/8/2 263/8/2
f 258/8/2 259/8/2 263/8/2
f 257/8/2 258/8/2 263/8/2
f 263/8/2 262/8/2 264/8/2
f 257/8/2 263/8/2 265/8/2
f 265/8/2 263/8/2 266/8/2
f 274/2/3 268/2/3 267/2/3
f 275/2/3 268/2/3 274/2/3
f 276/8/3 270/8/3 269/8/3
f 277/8/3 270/8/3 276/8/3
f 279/4/3 272/4/3 271/4/3
f 280/4/3 272/4/3 279/4/3
f 281/2/3 275/2/3 274/2/3
f 281/2/3 274/2/3 273/2/3
f 281/2/3 276/2/3 275/2/3
f 282/2/3 276/2/3 281/2/3
f 283/2/3 276/2/3 282/2/3
f 284/8/3 270/8/3 277/8/3
f 286/4/3 279/4/3 278/4/3
f 287/4/3 279/4/3 286/4/3
f 288/2/3 281/2/3 273/2/3
f 289/2/3 281/2/3 288/2/3
f 290/2/3 283/2/3 282/2/3
f 291/8/3 284/8/3 283/8/3
f 291/2/3 283/2/3 290/2/3
f 292/4/3 286/4/3 285/4/3
f 293/4/3 286/4/3 292/4/3
f 296/2/3 290/2/3 289/2/3
f 297/2/3 290/2/3 296/2/3
f 298/8/3 284/8/3 291/8/3
f 299/4/3 294/4/3 293/4/3
f 300/4/3 294/4/3 299/4/3
f 302/2/3 296/2/3 295/2/3
f 303/2/3 298/2/3 297/2/3
f 304/8/3 284/8/3 298/8/3
f 304/2/3 298/2/3 303/2/3
f 305/8/3 270/8/3 284/8/3
f 305/8/3 284/8/3 304/8/3
f 306/4/3 301/4/3 300/4/3
f 307/4/3 301/4/3 306/4/3
f 308/2/3 302/2/3 295/2/3
f 308/2/3 303/2/3 302/2/3
f 308/2/3 304/2/3 303/2/3
f 309/2/3 304/2/3 308/2/3
f 310/2/3 304/2/3 309/2/3
f 311/2/3 304/2/3 310/2/3
f 312/8/3 270/8/3 305/8/3
f 313/2/3 310/2/3 309/2/3
f 314/2/3 310/2/3 313/2/3
f 315/8/3 312/8/3 311/8/3
f 316/8/3 270/8/3 312/8/3
f 316/8/3 312/8/3 315/8/3
f 321/4/3 318/4/3 317/4/3
f 322/4/3 318/4/3 321/4/3
f 327/5/3 320/5/3 319/5/3
f 328/5/3 320/5/3 327/5/3
f 329/5/3 322/5/3 321/5/3
f 330/5/3 322/5/3 329/5/3
f 333/1/3 324/1/3 323/1/3
f 334/1/3 324/1/3 333/1/3
f 335/5/3 327/5/3 319/5/3
f 336/5/3 327/5/3 335/5/3
f 337/5/3 329/5/3 328/5/3
f 338/1/3 330/1/3 329/1/3
f 339/9/3 332/9/3 331/9/3
f 340/9/3 332/9/3 339/9/3
f 342/5/3 335/5/3 319/5/3
f 343/5/3 337/5/3 336/5/3
f 344/5/3 329/5/3 337/5/3
f 344/5/3 337/5/3 343/5/3
f 345/1/3 338/1/3 329/1/3
f 345/1/3 339/1/3 338/1/3
f 346/1/3 339/1/3 345/1/3
f 347/1/3 341/1/3 340/1/3
f 348/1/3 341/1/3 347/1/3
f 349/5/3 343/5/3 342/5/3
f 350/5/3 329/5/3 344/5/3
f 351/1/3 345/1/3 329/1/3
f 351/5/3 329/5/3 350/5/3
f 352/1/3 345/1/3 351/1/3
f 353/9/3 347/9/3 346/9/3
f 354/9/3 347/9/3 353/9/3
f 357/5/3 349/5/3 342/5/3
f 357/5/3 342/5/3 319/5/3
f 357/5/3 350/5/3 349/5/3
f 358/5/3 350/5/3 357/5/3
f 359/5/3 352/5/3 351/5/3
f 360/5/3 352/5/3 359/5/3
f 361/1/3 356/1/3 355/1/3
f 362/1/3 356/1/3 361/1/3
f 363/8/3 326/8/3 325/8/3
f 364/8/3 326/8/3 363/8/3
f 365/4/3 360/4/3 359/4/3
f 366/4/3 360/4/3 365/4/3
f 371/1/3 368/1/3 367/1/3
f 372/1/3 368/1/3 371/1/3
f 373/8/3 370/8/3 369/8/3
f 374/8/3 370/8/3 373/8/3
f 377/8/3 376/8/3 375/8/3
f 378/8/3 376/8/3 377/8/3
f 383/1/3 380/1/3 379/1/3
f 384/1/3 380/1/3 383/1/3
f 385/8/3 382/8/3 381/8/3
f 386/8/3 382/8/3 385/8/3
f 389/1/3 388/1/3 387/1/3
f 390/1/3 388/1/3 389/1/3
f 393/5/3 392/5/3 391/5/3
f 394/5/3 392/5/3 393/5/3
f 397/5/3 396/5/3 395/5/3
f 398/5/3 396/5/3 397/5/3
f 401/1/3 400/1/3 399/1/3
f 402/1/3 400/1/3 401/1/3
f 405/8/3 404/8/3 403/8/3
f 406/8/3 404/8/3 405/8/3
f 409/8/3 408/8/3 407/8/3
f 410/8/3 408/8/3 409/8/3
f 411/2/4 412/2/4 414/2/4
f 412/8/4 413/8/4 415/8/4
f 414/2/4 412/2/4 415/2/4
f 415/8/4 413/8/4 416/8/4
f 417/2/4 418/2/4 420/2/4
f 418/8/4 419/8/4 421/8/4
f 420/2/4 418/2/4 421/2/4
f 421/8/4 419/8/4 422/8/4
f 423/1/4 424/1/4 425/1/4
f 425/1/4 424/1/4 426/1/4
f 427/5/4 428/5/4 429/5/4
f 429/5/4 428/5/4 430/5/4
f 431/5/4 432/5/4 433/5/4
f 433/5/4 432/5/4 434/5/4
f 435/1/4 436/1/4 437/1/4
f 437/1/4 436/1/4 438/1/4
f 439/8/4 440/8/4 441/8/4
f 441/8/4 440/8/4 442/8/4
f 443/8/4 444/8/4 445/8/4
f 445/8/4 444/8/4 446/8/4
f 447/8/4 448/8/4 449/8/4
f 449/8/4 448/8/4 450/8/4
f 451/4/4 452/4/4 458/4/4
f 458/4/4 452/4/4 459/4/4
f 453/8/4 454/8/4 460/8/4
f 460/8/4 454/8/4 461/8/4
f 455/8/4 456/8/4 462/8/4
f 462/8/4 456/8/4 463/8/4
f 459/1/4 460/1/4 465/1/4
f 465/1/4 460/1/4 466/1/4
f 459/1/4 465/1/4 467/1/4
f 467/1/4 465/1/4 468/1/4
f 469/1/4 470/1/4 471/1/4
f 457/5/4 458/5/4 473/5/4
f 473/5/4 458/5/4 474/5/4
f 471/1/4 472/1/4 475/1/4
f 469/1/4 471/1/4 475/1/4
f 475/1/4 472/1/4 476/1/4
f 463/8/4 464/8/4 479/8/4
f 479/8/4 464/8/4 480/8/4
f 474/4/4 475/4/4 481/4/4
f 481/4/4 475/4/4 482/4/4
f 476/8/4 477/8/4 483/8/4
f 483/8/4 477/8/4 484/8/4
f 478/8/4 479/8/4 485/8/4
f 485/8/4 479/8/4 486/8/4
f 487/8/4 488/8/4 492/8/4
f 492/8/4 488/8/4 493/8/4
f 491/8/4 492/8/4 496/8/4
f 493/8/4 494/8/4 496/8/4
f 492/8/4 493/8/4 496/8/4
f 489/4/4 490/4/4 497/4/4
f 495/8/4 496/8/4 498/8/4
f 489/4/4 497/4/4 499/4/4
f 497/8/4 498/8/4 499/8/4
f 498/8/4 496/8/4 500/8/4
f 499/8/4 498/8/4 500/8/4
f 500/8/4 496/8/4 501/8/4
f 496/8/4 494/8/4 502/8/4
f 501/8/4 496/8/4 502/8/4
f 489/4/4 499/4/4 503/4/4
f 503/4/4 499/4/4 504/4/4
f 502/8/4 494/8/4 505/8/4
f 505/8/4 494/8/4 506/8/4
f 506/8/4 494/8/4 507/8/4
f 507/8/4 494/8/4 508/8/4
f 506/8/4 507/8/4 509/8/4
f 509/8/4 507/8/4 510/8/4
f 515/5/5 512/5/5 511/5/5
f 516/5/5 512/5/5 515/5/5
f 517/5/5 514/5/5 513/5/5
f 518/5/5 514/5/5 517/5/5
f 521/5/5 520/5/5 519/5/5
f 522/5/5 520/5/5 521/5/5
f 523/5/5 520/5/5 522/5/5
f 524/5/5 520/5/5 523/5/5
f 525/5/5 521/5/5 519/5/5
f 526/5/5 523/5/5 522/5/5
f 527/5/5 523/5/5 526/5/5
f 528/5/5 520/5/5 524/5/5
f 529/5/5 527/5/5 526/5/5
f 529/5/5 528/5/5 527/5/5
f 529/5/5 525/5/5 519/5/5
f 529/5/5 526/5/5 525/5/5
f 530/5/5 520/5/5 528/5/5
f 530/5/5 528/5/5 529/5/5
f 533/4/5 532/4/5 531/4/5
f 534/4/5 532/4/5 533/4/5
f 539/4/5 536/4/5 535/4/5
f 540/4/5 536/4/5 539/4/5
f 541/4/5 538/4/5 537/4/5
f 542/4/5 538/4/5 541/4/5
f 547/1/5 544/1/5 543/1/5
f 548/1/5 544/1/5 547/1/5
f 549/1/5 546/1/5 545/1/5
f 550/1/5 546/1/5 549/1/5
f 555/4/5 552/4/5 551/4/5
f 556/4/5 552/4/5 555/4/5
f 557/4/5 554/4/5 553/4/5
f 558/4/5 554/4/5 557/4/5
f 563/4/5 560/4/5 559/4/5
f 564/4/5 560/4/5 563/4/5
f 565/4/5 562/4/5 561/4/5
f 566/4/5 562/4/5 565/4/5
f 571/4/5 568/4/5 567/4/5
f 572/4/5 568/4/5 571/4/5
f 573/4/5 570/4/5 569/4/5
f 574/4/5 570/4/5 573/4/5
f 575/4/5 573/4/5 572/4/5
f 576/4/5 573/4/5 575/4/5
f 581/2/5 578/2/5 577/2/5
f 582/2/5 578/2/5 581/2/5
f 583/2/5 578/2/5 582/2/5
f 584/2/5 580/2/5 579/2/5
f 585/2/5 580/2/5 584/2/5
f 586/2/5 580/2/5 585/2/5
f 593/2/5 588/2/5 587/2/5
f 594/2/5 590/2/5 589/2/5
f 595/2/5 590/2/5 594/2/5
f 596/2/5 592/2/5 591/2/5
f 597/2/5 593/2/5 587/2/5
f 598/2/5 593/2/5 597/2/5
f 599/2/5 592/2/5 596/2/5
f 600/2/5 592/2/5 599/2/5
f 605/8/5 602/8/5 601/8/5
f 606/8/5 602/8/5 605/8/5
f 607/8/5 604/8/5 603/8/5
f 608/8/5 604/8/5 607/8/5
f 613/8/5 610/8/5 609/8/5
f 614/8/5 610/8/5 613/8/5
f 615/8/5 612/8/5 611/8/5
f 616/8/5 612/8/5 615/8/5
f 621/2/5 618/2/5 617/2/5
f 622/2/5 618/2/5 621/2/5
f 623/2/5 620/2/5 619/2/5
f 624/2/5 620/2/5 623/2/5
f 629/8/5 626/8/5 625/8/5
f 630/8/5 626/8/5 629/8/5
f 633/8/5 628/8/5 627/8/5
f 634/8/5 628/8/5 633/8/5
f 635/8/5 631/8/5 630/8/5
f 636/8/5 631/8/5 635/8/5
f 637/8/5 633/8/5 632/8/5
f 638/8/5 633/8/5 637/8/5
f 645/8/5 640/8/5 639/8/5
f 646/8/5 642/8/5 641/8/5
f 647/8/5 642/8/5 646/8/5
f 648/8/5 644/8/5 643/8/5
f 649/8/5 645/8/5 639/8/5
f 650/8/5 645/8/5 649/8/5
f 651/8/5 644/8/5 648/8/5
f 652/8/5 644/8/5 651/8/5
f 657/8/5 654/8/5 653/8/5
f 658/8/5 654/8/5 657/8/5
f 659/8/5 656/8/5 655/8/5
f 660/8/5 656/8/5 659/8/5
f 665/8/5 662/8/5 661/8/5
f 666/8/5 662/8/5 665/8/5
f 667/8/5 664/8/5 663/8/5
f 668/8/5 664/8/5 667/8/5
f 673/8/5 670/8/5 669/8/5
f 674/8/5 670/8/5 673/8/5
f 675/8/5 672/8/5 671/8/5
f 676/8/5 672/8/5 675/8/5
f 677/4/6 678/4/6 679/4/6
f 679/4/6 678/4/6 680/4/6
f 681/4/6 682/4/6 685/4/6
f 685/4/6 682/4/6 686/4/6
f 683/4/6 684/4/6 687/4/6
f 687/4/6 684/4/6 688/4/6
f 689/1/6 690/1/6 693/1/6
f 693/1/6 690/1/6 694/1/6
f 691/1/6 692/1/6 695/1/6
f 695/1/6 692/1/6 696/1/6
f 697/4/6 698/4/6 701/4/6
f 701/4/6 698/4/6 702/4/6
f 699/4/6 700/4/6 703/4/6
f 703/4/6 700/4/6 704/4/6
f 705/4/6 706/4/6 709/4/6
f 709/4/6 706/4/6 710/4/6
f 707/4/6 708/4/6 713/4/6
f 713/4/6 708/4/6 714/4/6
f 710/4/6 711/4/6 715/4/6
f 715/4/6 711/4/6 716/4/6
f 712/4/6 713/4/6 717/4/6
f 717/4/6 713/4/6 718/4/6
f 719/2/6 720/2/6 723/2/6
f 723/2/6 720/2/6 724/2/6
f 721/2/6 722/2/6 725/2/6
f 725/2/6 722/2/6 726/2/6
f 727/2/6 728/2/6 733/2/6
f 729/2/6 730/2/6 734/2/6
f 734/2/6 730/2/6 735/2/6
f 731/2/6 732/2/6 736/2/6
f 727/2/6 733/2/6 737/2/6
f 737/2/6 733/2/6 738/2/6
f 736/2/6 732/2/6 739/2/6
f 739/2/6 732/2/6 740/2/6
f 741/2/6 742/2/6 745/2/6
f 745/2/6 742/2/6 746/2/6
f 743/2/6 744/2/6 747/2/6
f 747/2/6 744/2/6 748/2/6
f 749/8/6 750/8/6 753/8/6
f 753/8/6 750/8/6 754/8/6
f 751/8/6 752/8/6 755/8/6
f 755/8/6 752/8/6 756/8/6
f 757/8/6 758/8/6 759/8/6
f 759/8/6 758/8/6 760/8/6
f 757/8/6 759/8/6 761/8/6
f 761/8/6 759/8/6 762/8/6
f 760/8/6 758/8/6 763/8/6
f 763/8/6 758/8/6 764/8/6
f 762/8/6 763/8/6 765/8/6
f 765/8/6 763/8/6 766/8/6
f 767/8/6 768/8/6 769/8/6
f 769/8/6 768/8/6 770/8/6
f 767/8/6 769/8/6 771/8/6
f 770/8/6 768/8/6 772/8/6
f 767/8/6 771/8/6 773/8/6
f 771/8/6 772/8/6 773/8/6
f 772/8/6 768/8/6 774/8/6
f 773/8/6 772/8/6 774/8/6
f 775/8/6 776/8/6 777/8/6
f 777/8/6 776/8/6 778/8/6
