# MagicaVoxel @ Ephtracy

# group
g ama001

# material
mtllib ama001.mtl
usemtl palette

# normals
vn -1 0 0
vn 1 0 0
vn 0 0 1
vn 0 0 -1
vn 0 -1 0
vn 0 1 0

# texcoords
vt 0.0332031 0.5
vt 0.521484 0.5
vt 0.556641 0.5
vt 0.611328 0.5
vt 0.634766 0.5
vt 0.966797 0.5
vt 0.994141 0.5

# verts
v -4 4 1.5
v -4 4 -0.5
v -4 5 1.5
v -4 5 0.5
v -4 6 0.5
v -4 6 -0.5
v -4 8 -0.5
v -4 8 -1.5
v -4 9 1.5
v -4 9 0.5
v -4 9 -1.5
v -4 9 -2.5
v -4 10 3.5
v -4 10 1.5
v -4 10 0.5
v -4 10 -0.5
v -4 10 -2.5
v -4 10 -3.5
v -4 11 -2.5
v -4 11 -3.5
v -4 12 3.5
v -4 12 -2.5
v -3 1 2.5
v -3 1 -2.5
v -3 4 1.5
v -3 4 -0.5
v -3 5 1.5
v -3 5 0.5
v -3 6 0.5
v -3 6 -0.5
v -3 7 2.5
v -3 7 -2.5
v -3 8 -0.5
v -3 8 -1.5
v -3 9 1.5
v -3 9 0.5
v -3 9 -1.5
v -3 9 -2.5
v -3 9 -3.5
v -3 10 2.5
v -3 10 1.5
v -3 10 0.5
v -3 10 -0.5
v -3 10 -2.5
v -3 10 -3.5
v -3 11 -2.5
v -3 11 -3.5
v -3 12 2.5
v -3 12 -2.5
v -3 12 -3.5
v -3 13 2.5
v -3 13 -2.5
v -2 0 0.5
v -2 0 -0.5
v -2 1 0.5
v -2 1 -0.5
v -2 8 -2.5
v -2 8 -3.5
v -2 9 -2.5
v -2 9 -3.5
v -2 10 3.5
v -2 10 2.5
v -2 11 3.5
v -2 11 2.5
v -2 13 1.5
v -2 13 -1.5
v -2 14 1.5
v -2 14 -1.5
v -1 7 -2.5
v -1 7 -3.5
v -1 8 -2.5
v -1 8 -3.5
v 1 0 0.5
v 1 0 -0.5
v 1 1 0.5
v 1 1 -0.5
v 3 10 3.5
v 3 10 2.5
v 3 11 3.5
v 3 11 2.5
v -3 10 3.5
v -3 10 2.5
v -3 11 3.5
v -3 11 2.5
v -1 0 0.5
v -1 0 -0.5
v -1 1 0.5
v -1 1 -0.5
v 1 7 -2.5
v 1 7 -3.5
v 1 8 -2.5
v 1 8 -3.5
v 2 0 0.5
v 2 0 -0.5
v 2 1 0.5
v 2 1 -0.5
v 2 8 -2.5
v 2 8 -3.5
v 2 9 -2.5
v 2 9 -3.5
v 2 10 3.5
v 2 10 2.5
v 2 11 3.5
v 2 11 2.5
v 2 13 1.5
v 2 13 -1.5
v 2 14 1.5
v 2 14 -1.5
v 3 1 2.5
v 3 1 -2.5
v 3 4 1.5
v 3 4 -0.5
v 3 5 1.5
v 3 5 0.5
v 3 6 0.5
v 3 6 -0.5
v 3 7 2.5
v 3 7 -2.5
v 3 8 -0.5
v 3 8 -1.5
v 3 9 1.5
v 3 9 0.5
v 3 9 -1.5
v 3 9 -2.5
v 3 9 -3.5
v 3 10 2.5
v 3 10 1.5
v 3 10 0.5
v 3 10 -0.5
v 3 10 -2.5
v 3 10 -3.5
v 3 11 -2.5
v 3 11 -3.5
v 3 12 2.5
v 3 12 -2.5
v 3 12 -3.5
v 3 13 2.5
v 3 13 -2.5
v 4 4 1.5
v 4 4 -0.5
v 4 5 1.5
v 4 5 0.5
v 4 6 0.5
v 4 6 -0.5
v 4 8 -0.5
v 4 8 -1.5
v 4 9 1.5
v 4 9 0.5
v 4 9 -1.5
v 4 9 -2.5
v 4 10 3.5
v 4 10 1.5
v 4 10 0.5
v 4 10 -0.5
v 4 10 -2.5
v 4 10 -3.5
v 4 11 -2.5
v 4 11 -3.5
v 4 12 3.5
v 4 12 -2.5
v -4 10 3.5
v -4 12 3.5
v -3 10 3.5
v -3 11 3.5
v -2 10 3.5
v -2 11 3.5
v 2 10 3.5
v 2 11 3.5
v 3 10 3.5
v 3 11 3.5
v 4 10 3.5
v 4 12 3.5
v -3 1 2.5
v -3 7 2.5
v -3 10 2.5
v -3 11 2.5
v -3 12 2.5
v -3 13 2.5
v -2 6 2.5
v -2 7 2.5
v -2 8 2.5
v -2 9 2.5
v -2 10 2.5
v -2 11 2.5
v -1 8 2.5
v -1 9 2.5
v 1 8 2.5
v 1 9 2.5
v 2 6 2.5
v 2 7 2.5
v 2 8 2.5
v 2 9 2.5
v 2 10 2.5
v 2 11 2.5
v 3 1 2.5
v 3 7 2.5
v 3 10 2.5
v 3 11 2.5
v 3 12 2.5
v 3 13 2.5
v -4 4 1.5
v -4 5 1.5
v -4 9 1.5
v -4 10 1.5
v -3 4 1.5
v -3 5 1.5
v -3 9 1.5
v -3 10 1.5
v -2 13 1.5
v -2 14 1.5
v 2 13 1.5
v 2 14 1.5
v 3 4 1.5
v 3 5 1.5
v 3 9 1.5
v 3 10 1.5
v 4 4 1.5
v 4 5 1.5
v 4 9 1.5
v 4 10 1.5
v -4 5 0.5
v -4 6 0.5
v -3 5 0.5
v -3 6 0.5
v -2 0 0.5
v -2 1 0.5
v -1 0 0.5
v -1 1 0.5
v 1 0 0.5
v 1 1 0.5
v 2 0 0.5
v 2 1 0.5
v 3 5 0.5
v 3 6 0.5
v 4 5 0.5
v 4 6 0.5
v -4 8 -0.5
v -4 10 -0.5
v -3 8 -0.5
v -3 10 -0.5
v 3 8 -0.5
v 3 10 -0.5
v 4 8 -0.5
v 4 10 -0.5
v -4 9 0.5
v -4 10 0.5
v -3 9 0.5
v -3 10 0.5
v 3 9 0.5
v 3 10 0.5
v 4 9 0.5
v 4 10 0.5
v -4 4 -0.5
v -4 6 -0.5
v -3 4 -0.5
v -3 6 -0.5
v -2 0 -0.5
v -2 1 -0.5
v -1 0 -0.5
v -1 1 -0.5
v 1 0 -0.5
v 1 1 -0.5
v 2 0 -0.5
v 2 1 -0.5
v 3 4 -0.5
v 3 6 -0.5
v 4 4 -0.5
v 4 6 -0.5
v -4 8 -1.5
v -4 9 -1.5
v -3 8 -1.5
v -3 9 -1.5
v -2 13 -1.5
v -2 14 -1.5
v 2 13 -1.5
v 2 14 -1.5
v 3 8 -1.5
v 3 9 -1.5
v 4 8 -1.5
v 4 9 -1.5
v -4 9 -2.5
v -4 10 -2.5
v -4 11 -2.5
v -4 12 -2.5
v -3 1 -2.5
v -3 7 -2.5
v -3 9 -2.5
v -3 10 -2.5
v -3 11 -2.5
v -3 12 -2.5
v -3 13 -2.5
v -2 8 -2.5
v -2 9 -2.5
v -1 7 -2.5
v -1 8 -2.5
v 1 7 -2.5
v 1 8 -2.5
v 2 8 -2.5
v 2 9 -2.5
v 3 1 -2.5
v 3 7 -2.5
v 3 9 -2.5
v 3 10 -2.5
v 3 11 -2.5
v 3 12 -2.5
v 3 13 -2.5
v 4 9 -2.5
v 4 10 -2.5
v 4 11 -2.5
v 4 12 -2.5
v -4 10 -3.5
v -4 11 -3.5
v -3 9 -3.5
v -3 10 -3.5
v -3 11 -3.5
v -3 12 -3.5
v -2 8 -3.5
v -2 9 -3.5
v -1 7 -3.5
v -1 8 -3.5
v 1 7 -3.5
v 1 8 -3.5
v 2 8 -3.5
v 2 9 -3.5
v 3 9 -3.5
v 3 10 -3.5
v 3 11 -3.5
v 3 12 -3.5
v 4 10 -3.5
v 4 11 -3.5
v -2 0 0.5
v -1 0 0.5
v 1 0 0.5
v 2 0 0.5
v -2 0 -0.5
v -1 0 -0.5
v 1 0 -0.5
v 2 0 -0.5
v -3 1 2.5
v 3 1 2.5
v -2 1 0.5
v -1 1 0.5
v 1 1 0.5
v 2 1 0.5
v -2 1 -0.5
v -1 1 -0.5
v 1 1 -0.5
v 2 1 -0.5
v -3 1 -2.5
v 3 1 -2.5
v -4 4 1.5
v -3 4 1.5
v 3 4 1.5
v 4 4 1.5
v -4 4 -0.5
v -3 4 -0.5
v 3 4 -0.5
v 4 4 -0.5
v -1 7 -2.5
v 1 7 -2.5
v -1 7 -3.5
v 1 7 -3.5
v -4 8 -0.5
v -3 8 -0.5
v 3 8 -0.5
v 4 8 -0.5
v -4 8 -1.5
v -3 8 -1.5
v 3 8 -1.5
v 4 8 -1.5
v -2 8 -2.5
v -1 8 -2.5
v 1 8 -2.5
v 2 8 -2.5
v -2 8 -3.5
v -1 8 -3.5
v 1 8 -3.5
v 2 8 -3.5
v -4 9 1.5
v -3 9 1.5
v 3 9 1.5
v 4 9 1.5
v -4 9 0.5
v -3 9 0.5
v 3 9 0.5
v 4 9 0.5
v -4 9 -1.5
v -3 9 -1.5
v 3 9 -1.5
v 4 9 -1.5
v -4 9 -2.5
v -3 9 -2.5
v -2 9 -2.5
v 2 9 -2.5
v 3 9 -2.5
v 4 9 -2.5
v -3 9 -3.5
v -2 9 -3.5
v 2 9 -3.5
v 3 9 -3.5
v -4 10 3.5
v -3 10 3.5
v -2 10 3.5
v 2 10 3.5
v 3 10 3.5
v 4 10 3.5
v -3 10 2.5
v -2 10 2.5
v 2 10 2.5
v 3 10 2.5
v -4 10 1.5
v -3 10 1.5
v 3 10 1.5
v 4 10 1.5
v -4 10 0.5
v -3 10 0.5
v 3 10 0.5
v 4 10 0.5
v -4 10 -0.5
v -3 10 -0.5
v 3 10 -0.5
v 4 10 -0.5
v -4 10 -2.5
v -3 10 -2.5
v 3 10 -2.5
v 4 10 -2.5
v -4 10 -3.5
v -3 10 -3.5
v 3 10 -3.5
v 4 10 -3.5
v -3 11 3.5
v -2 11 3.5
v 2 11 3.5
v 3 11 3.5
v -3 11 2.5
v -2 11 2.5
v 2 11 2.5
v 3 11 2.5
v -4 5 1.5
v -3 5 1.5
v 3 5 1.5
v 4 5 1.5
v -4 5 0.5
v -3 5 0.5
v 3 5 0.5
v 4 5 0.5
v -4 6 0.5
v -3 6 0.5
v 3 6 0.5
v 4 6 0.5
v -4 6 -0.5
v -3 6 -0.5
v 3 6 -0.5
v 4 6 -0.5
v -4 11 -2.5
v -3 11 -2.5
v 3 11 -2.5
v 4 11 -2.5
v -4 11 -3.5
v -3 11 -3.5
v 3 11 -3.5
v 4 11 -3.5
v -4 12 3.5
v 4 12 3.5
v -3 12 2.5
v 3 12 2.5
v -4 12 -2.5
v -3 12 -2.5
v 3 12 -2.5
v 4 12 -2.5
v -3 12 -3.5
v 3 12 -3.5
v -3 13 2.5
v 3 13 2.5
v -2 13 1.5
v 2 13 1.5
v -2 13 -1.5
v 2 13 -1.5
v -3 13 -2.5
v 3 13 -2.5
v -2 14 1.5
v 2 14 1.5
v -2 14 -1.5
v 2 14 -1.5

# faces
f 3/1/1 2/1/1 1/1/1
f 4/1/1 2/1/1 3/1/1
f 5/1/1 2/1/1 4/1/1
f 6/1/1 2/1/1 5/1/1
f 11/6/1 8/6/1 7/6/1
f 14/6/1 10/6/1 9/6/1
f 15/6/1 10/6/1 14/6/1
f 16/6/1 12/6/1 11/6/1
f 16/6/1 11/6/1 7/6/1
f 17/6/1 12/6/1 16/6/1
f 19/6/1 15/6/1 14/6/1
f 19/6/1 18/6/1 17/6/1
f 19/6/1 17/6/1 16/6/1
f 19/6/1 16/6/1 15/6/1
f 19/6/1 14/6/1 13/6/1
f 20/6/1 18/6/1 19/6/1
f 21/6/1 19/6/1 13/6/1
f 22/6/1 19/6/1 21/6/1
f 25/3/1 24/3/1 23/3/1
f 26/3/1 24/3/1 25/3/1
f 27/3/1 25/3/1 23/3/1
f 29/3/1 28/3/1 27/3/1
f 30/3/1 24/3/1 26/3/1
f 31/3/1 29/3/1 27/3/1
f 31/3/1 30/3/1 29/3/1
f 31/3/1 27/3/1 23/3/1
f 32/3/1 24/3/1 30/3/1
f 32/3/1 30/3/1 31/3/1
f 33/1/1 32/1/1 31/1/1
f 34/1/1 32/1/1 33/1/1
f 35/1/1 33/1/1 31/1/1
f 36/1/1 33/1/1 35/1/1
f 37/1/1 32/1/1 34/1/1
f 38/1/1 32/1/1 37/1/1
f 40/1/1 35/1/1 31/1/1
f 41/1/1 35/1/1 40/1/1
f 42/1/1 33/1/1 36/1/1
f 43/1/1 33/1/1 42/1/1
f 44/6/1 39/6/1 38/6/1
f 45/6/1 39/6/1 44/6/1
f 49/6/1 47/6/1 46/6/1
f 50/6/1 47/6/1 49/6/1
f 51/6/1 49/6/1 48/6/1
f 52/6/1 49/6/1 51/6/1
f 55/3/1 54/3/1 53/3/1
f 56/3/1 54/3/1 55/3/1
f 59/6/1 58/6/1 57/6/1
f 60/6/1 58/6/1 59/6/1
f 63/6/1 62/6/1 61/6/1
f 64/6/1 62/6/1 63/6/1
f 67/6/1 66/6/1 65/6/1
f 68/6/1 66/6/1 67/6/1
f 71/6/1 70/6/1 69/6/1
f 72/6/1 70/6/1 71/6/1
f 75/3/1 74/3/1 73/3/1
f 76/3/1 74/3/1 75/3/1
f 79/6/1 78/6/1 77/6/1
f 80/6/1 78/6/1 79/6/1
f 81/6/2 82/6/2 83/6/2
f 83/6/2 82/6/2 84/6/2
f 85/3/2 86/3/2 87/3/2
f 87/3/2 86/3/2 88/3/2
f 89/6/2 90/6/2 91/6/2
f 91/6/2 90/6/2 92/6/2
f 93/3/2 94/3/2 95/3/2
f 95/3/2 94/3/2 96/3/2
f 97/6/2 98/6/2 99/6/2
f 99/6/2 98/6/2 100/6/2
f 101/6/2 102/6/2 103/6/2
f 103/6/2 102/6/2 104/6/2
f 105/6/2 106/6/2 107/6/2
f 107/6/2 106/6/2 108/6/2
f 109/3/2 110/3/2 111/3/2
f 111/3/2 110/3/2 112/3/2
f 109/3/2 111/3/2 113/3/2
f 113/3/2 114/3/2 115/3/2
f 112/3/2 110/3/2 116/3/2
f 113/3/2 115/3/2 117/3/2
f 115/3/2 116/3/2 117/3/2
f 109/3/2 113/3/2 117/3/2
f 116/3/2 110/3/2 118/3/2
f 117/3/2 116/3/2 118/3/2
f 117/1/2 118/1/2 119/1/2
f 119/1/2 118/1/2 120/1/2
f 117/1/2 119/1/2 121/1/2
f 121/1/2 119/1/2 122/1/2
f 120/1/2 118/1/2 123/1/2
f 123/1/2 118/1/2 124/1/2
f 117/1/2 121/1/2 126/1/2
f 126/1/2 121/1/2 127/1/2
f 122/1/2 119/1/2 128/1/2
f 128/1/2 119/1/2 129/1/2
f 124/6/2 125/6/2 130/6/2
f 130/6/2 125/6/2 131/6/2
f 132/6/2 133/6/2 135/6/2
f 135/6/2 133/6/2 136/6/2
f 134/6/2 135/6/2 137/6/2
f 137/6/2 135/6/2 138/6/2
f 139/1/2 140/1/2 141/1/2
f 141/1/2 140/1/2 142/1/2
f 142/1/2 140/1/2 143/1/2
f 143/1/2 140/1/2 144/1/2
f 145/6/2 146/6/2 149/6/2
f 147/6/2 148/6/2 152/6/2
f 152/6/2 148/6/2 153/6/2
f 149/6/2 150/6/2 154/6/2
f 145/6/2 149/6/2 154/6/2
f 154/6/2 150/6/2 155/6/2
f 152/6/2 153/6/2 157/6/2
f 155/6/2 156/6/2 157/6/2
f 154/6/2 155/6/2 157/6/2
f 153/6/2 154/6/2 157/6/2
f 151/6/2 152/6/2 157/6/2
f 157/6/2 156/6/2 158/6/2
f 151/6/2 157/6/2 159/6/2
f 159/6/2 157/6/2 160/6/2
f 163/6/3 162/6/3 161/6/3
f 164/6/3 162/6/3 163/6/3
f 166/6/3 162/6/3 164/6/3
f 167/6/3 166/6/3 165/6/3
f 168/6/3 162/6/3 166/6/3
f 168/6/3 166/6/3 167/6/3
f 170/6/3 162/6/3 168/6/3
f 171/6/3 170/6/3 169/6/3
f 172/6/3 162/6/3 170/6/3
f 172/6/3 170/6/3 171/6/3
f 179/3/3 174/3/3 173/3/3
f 180/1/3 175/1/3 174/1/3
f 180/3/3 174/3/3 179/3/3
f 180/1/3 176/1/3 175/1/3
f 181/1/3 176/1/3 180/1/3
f 182/1/3 176/1/3 181/1/3
f 183/1/3 176/1/3 182/1/3
f 184/1/3 176/1/3 183/1/3
f 185/1/3 180/1/3 179/1/3
f 185/1/3 181/1/3 180/1/3
f 185/7/3 182/7/3 181/7/3
f 186/1/3 183/1/3 182/1/3
f 186/7/3 182/7/3 185/7/3
f 187/1/3 185/1/3 179/1/3
f 187/1/3 186/1/3 185/1/3
f 188/1/3 183/1/3 186/1/3
f 188/1/3 186/1/3 187/1/3
f 189/3/3 179/3/3 173/3/3
f 189/1/3 187/1/3 179/1/3
f 190/1/3 187/1/3 189/1/3
f 191/7/3 188/7/3 187/7/3
f 191/1/3 187/1/3 190/1/3
f 192/1/3 183/1/3 188/1/3
f 192/7/3 188/7/3 191/7/3
f 193/1/3 183/1/3 192/1/3
f 195/3/3 190/3/3 189/3/3
f 195/3/3 189/3/3 173/3/3
f 196/1/3 191/1/3 190/1/3
f 196/3/3 190/3/3 195/3/3
f 196/1/3 194/1/3 193/1/3
f 196/1/3 192/1/3 191/1/3
f 196/1/3 193/1/3 192/1/3
f 197/1/3 194/1/3 196/1/3
f 198/1/3 194/1/3 197/1/3
f 199/6/3 178/6/3 177/6/3
f 200/6/3 178/6/3 199/6/3
f 205/1/3 202/1/3 201/1/3
f 206/1/3 202/1/3 205/1/3
f 207/6/3 204/6/3 203/6/3
f 208/6/3 204/6/3 207/6/3
f 211/6/3 210/6/3 209/6/3
f 212/6/3 210/6/3 211/6/3
f 217/1/3 214/1/3 213/1/3
f 218/1/3 214/1/3 217/1/3
f 219/6/3 216/6/3 215/6/3
f 220/6/3 216/6/3 219/6/3
f 223/1/3 222/1/3 221/1/3
f 224/1/3 222/1/3 223/1/3
f 227/3/3 226/3/3 225/3/3
f 228/3/3 226/3/3 227/3/3
f 231/3/3 230/3/3 229/3/3
f 232/3/3 230/3/3 231/3/3
f 235/1/3 234/1/3 233/1/3
f 236/1/3 234/1/3 235/1/3
f 239/6/3 238/6/3 237/6/3
f 240/6/3 238/6/3 239/6/3
f 243/6/3 242/6/3 241/6/3
f 244/6/3 242/6/3 243/6/3
f 245/6/4 246/6/4 247/6/4
f 247/6/4 246/6/4 248/6/4
f 249/6/4 250/6/4 251/6/4
f 251/6/4 250/6/4 252/6/4
f 253/1/4 254/1/4 255/1/4
f 255/1/4 254/1/4 256/1/4
f 257/3/4 258/3/4 259/3/4
f 259/3/4 258/3/4 260/3/4
f 261/3/4 262/3/4 263/3/4
f 263/3/4 262/3/4 264/3/4
f 265/1/4 266/1/4 267/1/4
f 267/1/4 266/1/4 268/1/4
f 269/6/4 270/6/4 271/6/4
f 271/6/4 270/6/4 272/6/4
f 273/6/4 274/6/4 275/6/4
f 275/6/4 274/6/4 276/6/4
f 277/6/4 278/6/4 279/6/4
f 279/6/4 278/6/4 280/6/4
f 281/6/4 282/6/4 287/6/4
f 287/6/4 282/6/4 288/6/4
f 283/6/4 284/6/4 289/6/4
f 289/6/4 284/6/4 290/6/4
f 286/1/4 287/1/4 292/1/4
f 292/1/4 287/1/4 293/1/4
f 285/3/4 286/3/4 294/3/4
f 286/1/4 292/1/4 294/1/4
f 294/1/4 292/1/4 295/1/4
f 285/3/4 294/3/4 296/3/4
f 296/1/4 297/1/4 298/1/4
f 285/3/4 296/3/4 300/3/4
f 296/1/4 298/1/4 301/1/4
f 300/3/4 296/3/4 301/3/4
f 298/1/4 299/1/4 301/1/4
f 301/1/4 299/1/4 302/1/4
f 290/6/4 291/6/4 305/6/4
f 305/6/4 291/6/4 306/6/4
f 302/6/4 303/6/4 307/6/4
f 307/6/4 303/6/4 308/6/4
f 304/6/4 305/6/4 309/6/4
f 309/6/4 305/6/4 310/6/4
f 311/6/4 312/6/4 314/6/4
f 314/6/4 312/6/4 315/6/4
f 313/6/4 314/6/4 318/6/4
f 315/6/4 316/6/4 318/6/4
f 314/6/4 315/6/4 318/6/4
f 317/6/4 318/6/4 320/6/4
f 319/6/4 320/6/4 321/6/4
f 320/6/4 318/6/4 322/6/4
f 321/6/4 320/6/4 322/6/4
f 322/6/4 318/6/4 323/6/4
f 318/6/4 316/6/4 324/6/4
f 323/6/4 318/6/4 324/6/4
f 324/6/4 316/6/4 325/6/4
f 325/6/4 316/6/4 326/6/4
f 326/6/4 316/6/4 327/6/4
f 327/6/4 316/6/4 328/6/4
f 326/6/4 327/6/4 329/6/4
f 329/6/4 327/6/4 330/6/4
f 335/3/5 332/3/5 331/3/5
f 336/3/5 332/3/5 335/3/5
f 337/3/5 334/3/5 333/3/5
f 338/3/5 334/3/5 337/3/5
f 341/3/5 340/3/5 339/3/5
f 342/3/5 340/3/5 341/3/5
f 343/3/5 340/3/5 342/3/5
f 344/3/5 340/3/5 343/3/5
f 345/3/5 341/3/5 339/3/5
f 346/3/5 343/3/5 342/3/5
f 347/3/5 343/3/5 346/3/5
f 348/3/5 340/3/5 344/3/5
f 349/3/5 347/3/5 346/3/5
f 349/3/5 348/3/5 347/3/5
f 349/3/5 345/3/5 339/3/5
f 349/3/5 346/3/5 345/3/5
f 350/3/5 340/3/5 348/3/5
f 350/3/5 348/3/5 349/3/5
f 355/1/5 352/1/5 351/1/5
f 356/1/5 352/1/5 355/1/5
f 357/1/5 354/1/5 353/1/5
f 358/1/5 354/1/5 357/1/5
f 361/6/5 360/6/5 359/6/5
f 362/6/5 360/6/5 361/6/5
f 367/6/5 364/6/5 363/6/5
f 368/6/5 364/6/5 367/6/5
f 369/6/5 366/6/5 365/6/5
f 370/6/5 366/6/5 369/6/5
f 375/6/5 372/6/5 371/6/5
f 376/6/5 372/6/5 375/6/5
f 377/6/5 374/6/5 373/6/5
f 378/6/5 374/6/5 377/6/5
f 383/6/5 380/6/5 379/6/5
f 384/6/5 380/6/5 383/6/5
f 385/6/5 382/6/5 381/6/5
f 386/6/5 382/6/5 385/6/5
f 391/6/5 388/6/5 387/6/5
f 392/6/5 388/6/5 391/6/5
f 395/6/5 390/6/5 389/6/5
f 396/6/5 390/6/5 395/6/5
f 397/6/5 393/6/5 392/6/5
f 398/6/5 393/6/5 397/6/5
f 399/6/5 395/6/5 394/6/5
f 400/6/5 395/6/5 399/6/5
f 407/6/5 402/6/5 401/6/5
f 408/6/5 404/6/5 403/6/5
f 409/6/5 404/6/5 408/6/5
f 410/6/5 406/6/5 405/6/5
f 411/6/5 407/6/5 401/6/5
f 412/6/5 407/6/5 411/6/5
f 413/6/5 406/6/5 410/6/5
f 414/6/5 406/6/5 413/6/5
f 419/6/5 416/6/5 415/6/5
f 420/6/5 416/6/5 419/6/5
f 421/6/5 418/6/5 417/6/5
f 422/6/5 418/6/5 421/6/5
f 427/6/5 424/6/5 423/6/5
f 428/6/5 424/6/5 427/6/5
f 429/6/5 426/6/5 425/6/5
f 430/6/5 426/6/5 429/6/5
f 435/6/5 432/6/5 431/6/5
f 436/6/5 432/6/5 435/6/5
f 437/6/5 434/6/5 433/6/5
f 438/6/5 434/6/5 437/6/5
f 439/1/6 440/1/6 443/1/6
f 443/1/6 440/1/6 444/1/6
f 441/1/6 442/1/6 445/1/6
f 445/1/6 442/1/6 446/1/6
f 447/1/6 448/1/6 451/1/6
f 451/1/6 448/1/6 452/1/6
f 449/1/6 450/1/6 453/1/6
f 453/1/6 450/1/6 454/1/6
f 455/6/6 456/6/6 459/6/6
f 459/6/6 456/6/6 460/6/6
f 457/6/6 458/6/6 461/6/6
f 461/6/6 458/6/6 462/6/6
f 463/6/6 464/6/6 465/6/6
f 465/6/6 464/6/6 466/6/6
f 463/6/6 465/6/6 467/6/6
f 467/6/6 465/6/6 468/6/6
f 466/6/6 464/6/6 469/6/6
f 469/6/6 464/6/6 470/6/6
f 468/6/6 469/6/6 471/6/6
f 471/6/6 469/6/6 472/6/6
f 473/6/6 474/6/6 475/6/6
f 475/6/6 474/6/6 476/6/6
f 473/6/6 475/6/6 477/6/6
f 476/6/6 474/6/6 478/6/6
f 473/6/6 477/6/6 479/6/6
f 477/6/6 478/6/6 479/6/6
f 478/6/6 474/6/6 480/6/6
f 479/6/6 478/6/6 480/6/6
f 481/6/6 482/6/6 483/6/6
f 483/6/6 482/6/6 484/6/6
